<svg width="1052" height="718" viewBox="0 0 1052 718" fill="none" xmlns="http://www.w3.org/2000/svg">
<rect x="-75" width="1014" height="718" fill="#EAE2DD"/>
<path d="M850.509 257.296C928.472 292.583 928.472 403.304 850.509 438.591L589.922 556.535C577.031 562.369 563.044 565.387 548.894 565.387L533 565.387C478.048 565.387 433.5 520.839 433.5 465.887L433.5 347.944L433.5 230C433.5 175.048 478.048 130.5 533 130.5L548.894 130.5C563.044 130.5 577.031 133.518 589.922 139.352L850.509 257.296Z" fill="white" stroke="#F1F1F1"/>
<rect x="532" y="130" width="435.887" height="532" rx="3" transform="rotate(90 532 130)" fill="url(#paint0_linear)"/>
<rect opacity="0.2" x="647.5" y="357.628" width="128.303" height="60" transform="rotate(90 647.5 357.628)" stroke="#BDBDC2"/>
<path d="M621.579 414.878L623.1 414.878L623.1 409.795L618.069 408.898L618.069 410.562C618.32 410.744 618.502 410.939 618.615 411.147C618.736 411.355 618.797 411.624 618.797 411.953C618.797 412.205 618.754 412.426 618.667 412.616C618.58 412.807 618.459 412.972 618.303 413.11C618.147 413.249 617.965 413.353 617.757 413.422C617.549 413.492 617.328 413.526 617.094 413.526C616.869 413.526 616.648 413.487 616.431 413.409C616.223 413.34 616.037 413.236 615.872 413.097C615.716 412.967 615.586 412.803 615.482 412.603C615.387 412.413 615.339 412.196 615.339 411.953C615.339 411.537 615.46 411.195 615.703 410.926C615.954 410.658 616.288 410.502 616.704 410.458L616.704 408.612C616.227 408.621 615.807 408.716 615.443 408.898C615.088 409.089 614.789 409.34 614.546 409.652C614.303 409.964 614.121 410.32 614 410.718C613.887 411.126 613.831 411.55 613.831 411.992C613.822 412.452 613.896 412.885 614.052 413.292C614.217 413.7 614.446 414.055 614.741 414.358C615.036 414.67 615.382 414.917 615.781 415.099C616.188 415.281 616.626 415.372 617.094 415.372C617.519 415.372 617.917 415.307 618.29 415.177C618.671 415.056 619.001 414.874 619.278 414.631C619.555 414.397 619.776 414.107 619.941 413.76C620.106 413.414 620.188 413.015 620.188 412.564C620.188 412.2 620.132 411.875 620.019 411.589C619.915 411.303 619.737 411.035 619.486 410.783L619.512 410.757L621.579 411.121L621.579 414.878ZM618.589 417.721C618.745 417.721 618.931 417.721 619.148 417.721C619.373 417.73 619.603 417.747 619.837 417.773C620.071 417.799 620.301 417.842 620.526 417.903C620.76 417.964 620.968 418.046 621.15 418.15C621.332 418.263 621.479 418.401 621.592 418.566C621.705 418.739 621.761 418.952 621.761 419.203C621.761 419.454 621.705 419.667 621.592 419.84C621.479 420.013 621.332 420.156 621.15 420.269C620.968 420.382 620.76 420.464 620.526 420.516C620.301 420.577 620.071 420.62 619.837 420.646C619.603 420.681 619.373 420.698 619.148 420.698C618.931 420.707 618.745 420.711 618.589 420.711C618.329 420.711 618.013 420.702 617.64 420.685C617.276 420.668 616.921 420.611 616.574 420.516C616.236 420.429 615.946 420.282 615.703 420.074C615.46 419.875 615.339 419.584 615.339 419.203C615.339 418.83 615.46 418.544 615.703 418.345C615.946 418.146 616.236 417.998 616.574 417.903C616.921 417.816 617.276 417.764 617.64 417.747C618.013 417.73 618.329 417.721 618.589 417.721ZM618.589 415.875C617.679 415.875 616.916 415.962 616.301 416.135C615.694 416.317 615.209 416.56 614.845 416.863C614.481 417.166 614.221 417.517 614.065 417.916C613.909 418.323 613.831 418.752 613.831 419.203C613.831 419.662 613.909 420.091 614.065 420.49C614.221 420.897 614.481 421.253 614.845 421.556C615.209 421.868 615.694 422.111 616.301 422.284C616.916 422.466 617.679 422.557 618.589 422.557C619.473 422.557 620.214 422.466 620.812 422.284C621.419 422.111 621.904 421.868 622.268 421.556C622.632 421.253 622.892 420.897 623.048 420.49C623.204 420.091 623.282 419.662 623.282 419.203C623.282 418.752 623.204 418.323 623.048 417.916C622.892 417.517 622.632 417.166 622.268 416.863C621.904 416.56 621.419 416.317 620.812 416.135C620.214 415.962 619.473 415.875 618.589 415.875ZM619.603 423.307L619.603 425.075C619.846 425.075 620.088 425.096 620.331 425.14C620.582 425.192 620.808 425.274 621.007 425.387C621.215 425.499 621.38 425.647 621.501 425.829C621.631 426.019 621.696 426.249 621.696 426.518C621.696 426.916 621.57 427.241 621.319 427.493C621.076 427.753 620.734 427.883 620.292 427.883C620.015 427.883 619.768 427.818 619.551 427.688C619.334 427.566 619.139 427.41 618.966 427.22C618.793 427.038 618.632 426.834 618.485 426.609C618.346 426.383 618.208 426.171 618.069 425.972C617.8 425.582 617.536 425.209 617.276 424.854C617.016 424.507 616.73 424.204 616.418 423.944C616.115 423.684 615.768 423.476 615.378 423.32C614.988 423.172 614.529 423.099 614 423.099L614 429.781L615.586 429.781L615.586 425.478C615.898 425.703 616.171 425.963 616.405 426.258C616.639 426.552 616.856 426.856 617.055 427.168C617.263 427.48 617.471 427.787 617.679 428.091C617.887 428.403 618.117 428.68 618.368 428.923C618.628 429.165 618.923 429.36 619.252 429.508C619.581 429.655 619.976 429.729 620.435 429.729C620.877 429.729 621.276 429.642 621.631 429.469C621.986 429.304 622.285 429.079 622.528 428.793C622.771 428.507 622.957 428.173 623.087 427.792C623.217 427.419 623.282 427.025 623.282 426.609C623.282 426.063 623.187 425.577 622.996 425.153C622.814 424.737 622.554 424.39 622.216 424.113C621.887 423.835 621.497 423.627 621.046 423.489C620.604 423.35 620.123 423.289 619.603 423.307Z" fill="#1D1D1D"/>
<rect opacity="0.2" x="245.5" y="357.628" width="128.303" height="59" transform="rotate(90 245.5 357.628)" stroke="#BDBDC2"/>
<path d="M219.579 415.549L221.1 415.549L221.1 410.466L216.069 409.569L216.069 411.233C216.32 411.415 216.502 411.61 216.615 411.818C216.736 412.026 216.797 412.295 216.797 412.624C216.797 412.876 216.754 413.097 216.667 413.287C216.58 413.478 216.459 413.643 216.303 413.781C216.147 413.92 215.965 414.024 215.757 414.093C215.549 414.163 215.328 414.197 215.094 414.197C214.869 414.197 214.648 414.158 214.431 414.08C214.223 414.011 214.037 413.907 213.872 413.768C213.716 413.638 213.586 413.474 213.482 413.274C213.387 413.084 213.339 412.867 213.339 412.624C213.339 412.208 213.46 411.866 213.703 411.597C213.954 411.329 214.288 411.173 214.704 411.129L214.704 409.283C214.227 409.292 213.807 409.387 213.443 409.569C213.088 409.76 212.789 410.011 212.546 410.323C212.303 410.635 212.121 410.991 212 411.389C211.887 411.797 211.831 412.221 211.831 412.663C211.822 413.123 211.896 413.556 212.052 413.963C212.217 414.371 212.446 414.726 212.741 415.029C213.036 415.341 213.382 415.588 213.781 415.77C214.188 415.952 214.626 416.043 215.094 416.043C215.519 416.043 215.917 415.978 216.29 415.848C216.671 415.727 217.001 415.545 217.278 415.302C217.555 415.068 217.776 414.778 217.941 414.431C218.106 414.085 218.188 413.686 218.188 413.235C218.188 412.871 218.132 412.546 218.019 412.26C217.915 411.974 217.737 411.706 217.486 411.454L217.512 411.428L219.579 411.792L219.579 415.549ZM212 421.369L221.1 421.369L221.1 419.9C220.753 419.848 220.463 419.739 220.229 419.575C219.995 419.41 219.804 419.206 219.657 418.964C219.518 418.73 219.419 418.461 219.358 418.158C219.306 417.863 219.284 417.555 219.293 417.235L217.902 417.235L217.902 419.523L212 419.523L212 421.369ZM218.786 427.552L215.627 427.552L215.627 425.16L218.786 427.513L218.786 427.552ZM214.106 427.552L212 427.552L212 429.307L214.106 429.307L214.106 430.516L215.627 430.516L215.627 429.307L221.1 429.307L221.1 427.656L215.796 423.704L214.106 423.704L214.106 427.552Z" fill="#1D1D1D"/>
<rect opacity="0.2" x="245.5" y="209.956" width="128.303" height="59" transform="rotate(90 245.5 209.956)" stroke="#BDBDC2"/>
<path d="M219.579 268.896L221.1 268.896L221.1 263.813L216.069 262.916L216.069 264.58C216.32 264.762 216.502 264.957 216.615 265.165C216.736 265.373 216.797 265.641 216.797 265.971C216.797 266.222 216.754 266.443 216.667 266.634C216.58 266.824 216.459 266.989 216.303 267.128C216.147 267.266 215.965 267.37 215.757 267.44C215.549 267.509 215.328 267.544 215.094 267.544C214.869 267.544 214.648 267.505 214.431 267.427C214.223 267.357 214.037 267.253 213.872 267.115C213.716 266.985 213.586 266.82 213.482 266.621C213.387 266.43 213.339 266.213 213.339 265.971C213.339 265.555 213.46 265.212 213.703 264.944C213.954 264.675 214.288 264.519 214.704 264.476L214.704 262.63C214.227 262.638 213.807 262.734 213.443 262.916C213.088 263.106 212.789 263.358 212.546 263.67C212.303 263.982 212.121 264.337 212 264.736C211.887 265.143 211.831 265.568 211.831 266.01C211.822 266.469 211.896 266.902 212.052 267.31C212.217 267.717 212.446 268.072 212.741 268.376C213.036 268.688 213.382 268.935 213.781 269.117C214.188 269.299 214.626 269.39 215.094 269.39C215.519 269.39 215.917 269.325 216.29 269.195C216.671 269.073 217.001 268.891 217.278 268.649C217.555 268.415 217.776 268.124 217.941 267.778C218.106 267.431 218.188 267.032 218.188 266.582C218.188 266.218 218.132 265.893 218.019 265.607C217.915 265.321 217.737 265.052 217.486 264.801L217.512 264.775L219.579 265.139L219.579 268.896ZM212 274.715L221.1 274.715L221.1 273.246C220.753 273.194 220.463 273.086 220.229 272.921C219.995 272.757 219.804 272.553 219.657 272.31C219.518 272.076 219.419 271.808 219.358 271.504C219.306 271.21 219.284 270.902 219.293 270.581L217.902 270.581L217.902 272.869L212 272.869L212 274.715ZM212 281.939L221.1 281.939L221.1 280.47C220.753 280.418 220.463 280.31 220.229 280.145C219.995 279.98 219.804 279.777 219.657 279.534C219.518 279.3 219.419 279.031 219.358 278.728C219.306 278.433 219.284 278.126 219.293 277.805L217.902 277.805L217.902 280.093L212 280.093L212 281.939Z" fill="#1D1D1D"/>
<rect x="444.5" y="358.628" width="126.303" height="56" rx="3.5" transform="rotate(90 444.5 358.628)" stroke="#F2F2F2"/>
<path d="M418.579 416.915L420.1 416.915L420.1 411.832L415.069 410.935L415.069 412.599C415.32 412.781 415.502 412.976 415.615 413.184C415.736 413.392 415.797 413.661 415.797 413.99C415.797 414.241 415.754 414.462 415.667 414.653C415.58 414.844 415.459 415.008 415.303 415.147C415.147 415.286 414.965 415.39 414.757 415.459C414.549 415.528 414.328 415.563 414.094 415.563C413.869 415.563 413.648 415.524 413.431 415.446C413.223 415.377 413.037 415.273 412.872 415.134C412.716 415.004 412.586 414.839 412.482 414.64C412.387 414.449 412.339 414.233 412.339 413.99C412.339 413.574 412.46 413.232 412.703 412.963C412.954 412.694 413.288 412.538 413.704 412.495L413.704 410.649C413.227 410.658 412.807 410.753 412.443 410.935C412.088 411.126 411.789 411.377 411.546 411.689C411.303 412.001 411.121 412.356 411 412.755C410.887 413.162 410.831 413.587 410.831 414.029C410.822 414.488 410.896 414.922 411.052 415.329C411.217 415.736 411.446 416.092 411.741 416.395C412.036 416.707 412.382 416.954 412.781 417.136C413.188 417.318 413.626 417.409 414.094 417.409C414.519 417.409 414.917 417.344 415.29 417.214C415.671 417.093 416.001 416.911 416.278 416.668C416.555 416.434 416.776 416.144 416.941 415.797C417.106 415.45 417.188 415.052 417.188 414.601C417.188 414.237 417.132 413.912 417.019 413.626C416.915 413.34 416.737 413.071 416.486 412.82L416.512 412.794L418.579 413.158L418.579 416.915ZM415.589 419.758C415.745 419.758 415.931 419.758 416.148 419.758C416.373 419.766 416.603 419.784 416.837 419.81C417.071 419.836 417.301 419.879 417.526 419.94C417.76 420 417.968 420.083 418.15 420.187C418.332 420.299 418.479 420.438 418.592 420.603C418.705 420.776 418.761 420.988 418.761 421.24C418.761 421.491 418.705 421.703 418.592 421.877C418.479 422.05 418.332 422.193 418.15 422.306C417.968 422.418 417.76 422.501 417.526 422.553C417.301 422.613 417.071 422.657 416.837 422.683C416.603 422.717 416.373 422.735 416.148 422.735C415.931 422.743 415.745 422.748 415.589 422.748C415.329 422.748 415.013 422.739 414.64 422.722C414.276 422.704 413.921 422.648 413.574 422.553C413.236 422.466 412.946 422.319 412.703 422.111C412.46 421.911 412.339 421.621 412.339 421.24C412.339 420.867 412.46 420.581 412.703 420.382C412.946 420.182 413.236 420.035 413.574 419.94C413.921 419.853 414.276 419.801 414.64 419.784C415.013 419.766 415.329 419.758 415.589 419.758ZM415.589 417.912C414.679 417.912 413.916 417.998 413.301 418.172C412.694 418.354 412.209 418.596 411.845 418.9C411.481 419.203 411.221 419.554 411.065 419.953C410.909 420.36 410.831 420.789 410.831 421.24C410.831 421.699 410.909 422.128 411.065 422.527C411.221 422.934 411.481 423.289 411.845 423.593C412.209 423.905 412.694 424.147 413.301 424.321C413.916 424.503 414.679 424.594 415.589 424.594C416.473 424.594 417.214 424.503 417.812 424.321C418.419 424.147 418.904 423.905 419.268 423.593C419.632 423.289 419.892 422.934 420.048 422.527C420.204 422.128 420.282 421.699 420.282 421.24C420.282 420.789 420.204 420.36 420.048 419.953C419.892 419.554 419.632 419.203 419.268 418.9C418.904 418.596 418.419 418.354 417.812 418.172C417.214 417.998 416.473 417.912 415.589 417.912ZM417.63 427.098C417.838 427.098 418.02 427.133 418.176 427.202C418.332 427.28 418.462 427.384 418.566 427.514C418.67 427.644 418.748 427.792 418.8 427.956C418.861 428.13 418.891 428.307 418.891 428.489C418.891 428.775 418.848 429.005 418.761 429.178C418.674 429.36 418.566 429.499 418.436 429.594C418.306 429.698 418.167 429.768 418.02 429.802C417.881 429.837 417.751 429.854 417.63 429.854C417.24 429.854 416.941 429.724 416.733 429.464C416.534 429.204 416.434 428.879 416.434 428.489C416.434 428.117 416.534 427.792 416.733 427.514C416.941 427.237 417.24 427.098 417.63 427.098ZM417.799 425.421C417.348 425.421 416.954 425.534 416.616 425.759C416.278 425.985 416.048 426.318 415.927 426.76L415.901 426.76C415.771 426.214 415.511 425.79 415.121 425.486C414.731 425.192 414.246 425.044 413.665 425.044C413.171 425.044 412.746 425.14 412.391 425.33C412.036 425.53 411.741 425.79 411.507 426.11C411.273 426.44 411.104 426.808 411 427.215C410.887 427.631 410.831 428.06 410.831 428.502C410.831 428.927 410.887 429.343 411 429.75C411.121 430.158 411.299 430.522 411.533 430.842C411.767 431.163 412.062 431.419 412.417 431.609C412.772 431.809 413.193 431.908 413.678 431.908C414.25 431.908 414.731 431.761 415.121 431.466C415.52 431.172 415.78 430.751 415.901 430.205L415.927 430.205C416.074 430.647 416.317 430.977 416.655 431.193C416.993 431.419 417.387 431.531 417.838 431.531C418.063 431.531 418.315 431.479 418.592 431.375C418.878 431.271 419.142 431.098 419.385 430.855C419.636 430.621 419.849 430.309 420.022 429.919C420.195 429.529 420.282 429.053 420.282 428.489C420.282 428.117 420.23 427.748 420.126 427.384C420.022 427.02 419.866 426.691 419.658 426.396C419.45 426.11 419.19 425.876 418.878 425.694C418.566 425.512 418.206 425.421 417.799 425.421ZM413.756 426.89C414.224 426.89 414.579 427.046 414.822 427.358C415.073 427.67 415.199 428.052 415.199 428.502C415.199 428.719 415.164 428.918 415.095 429.1C415.026 429.291 414.926 429.456 414.796 429.594C414.666 429.742 414.51 429.854 414.328 429.932C414.155 430.019 413.96 430.062 413.743 430.062C413.518 430.062 413.31 430.023 413.119 429.945C412.928 429.867 412.764 429.755 412.625 429.607C412.495 429.469 412.391 429.304 412.313 429.113C412.244 428.931 412.209 428.728 412.209 428.502C412.209 428.286 412.244 428.078 412.313 427.878C412.391 427.679 412.495 427.506 412.625 427.358C412.764 427.22 412.928 427.107 413.119 427.02C413.31 426.934 413.522 426.89 413.756 426.89Z" fill="black"/>
<rect opacity="0.2" x="445.5" y="209.956" width="128.303" height="58" transform="rotate(90 445.5 209.956)" stroke="#BDBDC2"/>
<path d="M421.579 268.896L423.1 268.896L423.1 263.813L418.069 262.916L418.069 264.58C418.32 264.762 418.502 264.957 418.615 265.165C418.736 265.373 418.797 265.641 418.797 265.971C418.797 266.222 418.754 266.443 418.667 266.634C418.58 266.824 418.459 266.989 418.303 267.128C418.147 267.266 417.965 267.37 417.757 267.44C417.549 267.509 417.328 267.544 417.094 267.544C416.869 267.544 416.648 267.505 416.431 267.427C416.223 267.357 416.037 267.253 415.872 267.115C415.716 266.985 415.586 266.82 415.482 266.621C415.387 266.43 415.339 266.213 415.339 265.971C415.339 265.555 415.46 265.212 415.703 264.944C415.954 264.675 416.288 264.519 416.704 264.476L416.704 262.63C416.227 262.638 415.807 262.734 415.443 262.916C415.088 263.106 414.789 263.358 414.546 263.67C414.303 263.982 414.121 264.337 414 264.736C413.887 265.143 413.831 265.568 413.831 266.01C413.822 266.469 413.896 266.902 414.052 267.31C414.217 267.717 414.446 268.072 414.741 268.376C415.036 268.688 415.382 268.935 415.781 269.117C416.188 269.299 416.626 269.39 417.094 269.39C417.519 269.39 417.917 269.325 418.29 269.195C418.671 269.073 419.001 268.891 419.278 268.649C419.555 268.415 419.776 268.124 419.941 267.778C420.106 267.431 420.188 267.032 420.188 266.582C420.188 266.218 420.132 265.893 420.019 265.607C419.915 265.321 419.737 265.052 419.486 264.801L419.512 264.775L421.579 265.139L421.579 268.896ZM418.589 271.738C418.745 271.738 418.931 271.738 419.148 271.738C419.373 271.747 419.603 271.764 419.837 271.79C420.071 271.816 420.301 271.86 420.526 271.92C420.76 271.981 420.968 272.063 421.15 272.167C421.332 272.28 421.479 272.419 421.592 272.583C421.705 272.757 421.761 272.969 421.761 273.22C421.761 273.472 421.705 273.684 421.592 273.857C421.479 274.031 421.332 274.174 421.15 274.286C420.968 274.399 420.76 274.481 420.526 274.533C420.301 274.594 420.071 274.637 419.837 274.663C419.603 274.698 419.373 274.715 419.148 274.715C418.931 274.724 418.745 274.728 418.589 274.728C418.329 274.728 418.013 274.72 417.64 274.702C417.276 274.685 416.921 274.629 416.574 274.533C416.236 274.447 415.946 274.299 415.703 274.091C415.46 273.892 415.339 273.602 415.339 273.22C415.339 272.848 415.46 272.562 415.703 272.362C415.946 272.163 416.236 272.016 416.574 271.92C416.921 271.834 417.276 271.782 417.64 271.764C418.013 271.747 418.329 271.738 418.589 271.738ZM418.589 269.892C417.679 269.892 416.916 269.979 416.301 270.152C415.694 270.334 415.209 270.577 414.845 270.88C414.481 271.184 414.221 271.535 414.065 271.933C413.909 272.341 413.831 272.77 413.831 273.22C413.831 273.68 413.909 274.109 414.065 274.507C414.221 274.915 414.481 275.27 414.845 275.573C415.209 275.885 415.694 276.128 416.301 276.301C416.916 276.483 417.679 276.574 418.589 276.574C419.473 276.574 420.214 276.483 420.812 276.301C421.419 276.128 421.904 275.885 422.268 275.573C422.632 275.27 422.892 274.915 423.048 274.507C423.204 274.109 423.282 273.68 423.282 273.22C423.282 272.77 423.204 272.341 423.048 271.933C422.892 271.535 422.632 271.184 422.268 270.88C421.904 270.577 421.419 270.334 420.812 270.152C420.214 269.979 419.473 269.892 418.589 269.892ZM421.579 283.343L423.1 283.343L423.1 278.26L418.069 277.363L418.069 279.027C418.32 279.209 418.502 279.404 418.615 279.612C418.736 279.82 418.797 280.089 418.797 280.418C418.797 280.669 418.754 280.89 418.667 281.081C418.58 281.272 418.459 281.436 418.303 281.575C418.147 281.714 417.965 281.818 417.757 281.887C417.549 281.956 417.328 281.991 417.094 281.991C416.869 281.991 416.648 281.952 416.431 281.874C416.223 281.805 416.037 281.701 415.872 281.562C415.716 281.432 415.586 281.267 415.482 281.068C415.387 280.877 415.339 280.661 415.339 280.418C415.339 280.002 415.46 279.66 415.703 279.391C415.954 279.122 416.288 278.966 416.704 278.923L416.704 277.077C416.227 277.086 415.807 277.181 415.443 277.363C415.088 277.554 414.789 277.805 414.546 278.117C414.303 278.429 414.121 278.784 414 279.183C413.887 279.59 413.831 280.015 413.831 280.457C413.822 280.916 413.896 281.35 414.052 281.757C414.217 282.164 414.446 282.52 414.741 282.823C415.036 283.135 415.382 283.382 415.781 283.564C416.188 283.746 416.626 283.837 417.094 283.837C417.519 283.837 417.917 283.772 418.29 283.642C418.671 283.521 419.001 283.339 419.278 283.096C419.555 282.862 419.776 282.572 419.941 282.225C420.106 281.878 420.188 281.48 420.188 281.029C420.188 280.665 420.132 280.34 420.019 280.054C419.915 279.768 419.737 279.499 419.486 279.248L419.512 279.222L421.579 279.586L421.579 283.343Z" fill="#1D1D1D"/>
<rect opacity="0.2" x="520.5" y="209.956" width="127" height="60.0688" stroke="#BDBDC2"/>
<path d="M573.829 240.282V238.761H568.746L567.849 243.792H569.513C569.695 243.541 569.89 243.359 570.098 243.246C570.306 243.125 570.575 243.064 570.904 243.064C571.155 243.064 571.376 243.108 571.567 243.194C571.758 243.281 571.922 243.402 572.061 243.558C572.2 243.714 572.304 243.896 572.373 244.104C572.442 244.312 572.477 244.533 572.477 244.767C572.477 244.993 572.438 245.214 572.36 245.43C572.291 245.638 572.187 245.825 572.048 245.989C571.918 246.145 571.753 246.275 571.554 246.379C571.363 246.475 571.147 246.522 570.904 246.522C570.488 246.522 570.146 246.401 569.877 246.158C569.608 245.907 569.452 245.573 569.409 245.157H567.563C567.572 245.634 567.667 246.054 567.849 246.418C568.04 246.774 568.291 247.073 568.603 247.315C568.915 247.558 569.27 247.74 569.669 247.861C570.076 247.974 570.501 248.03 570.943 248.03C571.402 248.039 571.836 247.965 572.243 247.809C572.65 247.645 573.006 247.415 573.309 247.12C573.621 246.826 573.868 246.479 574.05 246.08C574.232 245.673 574.323 245.235 574.323 244.767C574.323 244.343 574.258 243.944 574.128 243.571C574.007 243.19 573.825 242.861 573.582 242.583C573.348 242.306 573.058 242.085 572.711 241.92C572.364 241.756 571.966 241.673 571.515 241.673C571.151 241.673 570.826 241.73 570.54 241.842C570.254 241.946 569.985 242.124 569.734 242.375L569.708 242.349L570.072 240.282H573.829ZM576.672 243.272C576.672 243.116 576.672 242.93 576.672 242.713C576.68 242.488 576.698 242.258 576.724 242.024C576.75 241.79 576.793 241.561 576.854 241.335C576.914 241.101 576.997 240.893 577.101 240.711C577.213 240.529 577.352 240.382 577.517 240.269C577.69 240.157 577.902 240.1 578.154 240.1C578.405 240.1 578.617 240.157 578.791 240.269C578.964 240.382 579.107 240.529 579.22 240.711C579.332 240.893 579.415 241.101 579.467 241.335C579.527 241.561 579.571 241.79 579.597 242.024C579.631 242.258 579.649 242.488 579.649 242.713C579.657 242.93 579.662 243.116 579.662 243.272C579.662 243.532 579.653 243.849 579.636 244.221C579.618 244.585 579.562 244.941 579.467 245.287C579.38 245.625 579.233 245.916 579.025 246.158C578.825 246.401 578.535 246.522 578.154 246.522C577.781 246.522 577.495 246.401 577.296 246.158C577.096 245.916 576.949 245.625 576.854 245.287C576.767 244.941 576.715 244.585 576.698 244.221C576.68 243.849 576.672 243.532 576.672 243.272ZM574.826 243.272C574.826 244.182 574.912 244.945 575.086 245.56C575.268 246.167 575.51 246.652 575.814 247.016C576.117 247.38 576.468 247.64 576.867 247.796C577.274 247.952 577.703 248.03 578.154 248.03C578.613 248.03 579.042 247.952 579.441 247.796C579.848 247.64 580.203 247.38 580.507 247.016C580.819 246.652 581.061 246.167 581.235 245.56C581.417 244.945 581.508 244.182 581.508 243.272C581.508 242.388 581.417 241.647 581.235 241.049C581.061 240.443 580.819 239.957 580.507 239.593C580.203 239.229 579.848 238.969 579.441 238.813C579.042 238.657 578.613 238.579 578.154 238.579C577.703 238.579 577.274 238.657 576.867 238.813C576.468 238.969 576.117 239.229 575.814 239.593C575.51 239.957 575.268 240.443 575.086 241.049C574.912 241.647 574.826 242.388 574.826 243.272ZM586.872 247.861V238.761H585.403C585.351 239.108 585.243 239.398 585.078 239.632C584.914 239.866 584.71 240.057 584.467 240.204C584.233 240.343 583.965 240.443 583.661 240.503C583.367 240.555 583.059 240.577 582.738 240.568V241.959H585.026V247.861H586.872Z" fill="#1D1D1D"/>
<rect opacity="0.2" x="579.5" y="357.628" width="128.303" height="59" transform="rotate(90 579.5 357.628)" stroke="#BDBDC2"/>
<path d="M553.579 414.878L555.1 414.878L555.1 409.795L550.069 408.898L550.069 410.562C550.32 410.744 550.502 410.939 550.615 411.147C550.736 411.355 550.797 411.624 550.797 411.953C550.797 412.205 550.754 412.426 550.667 412.616C550.58 412.807 550.459 412.972 550.303 413.11C550.147 413.249 549.965 413.353 549.757 413.422C549.549 413.492 549.328 413.526 549.094 413.526C548.869 413.526 548.648 413.487 548.431 413.409C548.223 413.34 548.037 413.236 547.872 413.097C547.716 412.967 547.586 412.803 547.482 412.603C547.387 412.413 547.339 412.196 547.339 411.953C547.339 411.537 547.46 411.195 547.703 410.926C547.954 410.658 548.288 410.502 548.704 410.458L548.704 408.612C548.227 408.621 547.807 408.716 547.443 408.898C547.088 409.089 546.789 409.34 546.546 409.652C546.303 409.964 546.121 410.32 546 410.718C545.887 411.126 545.831 411.55 545.831 411.992C545.822 412.452 545.896 412.885 546.052 413.292C546.217 413.7 546.446 414.055 546.741 414.358C547.036 414.67 547.382 414.917 547.781 415.099C548.188 415.281 548.626 415.372 549.094 415.372C549.519 415.372 549.917 415.307 550.29 415.177C550.671 415.056 551.001 414.874 551.278 414.631C551.555 414.397 551.776 414.107 551.941 413.76C552.106 413.414 552.188 413.015 552.188 412.564C552.188 412.2 552.132 411.875 552.019 411.589C551.915 411.303 551.737 411.035 551.486 410.783L551.512 410.757L553.579 411.121L553.579 414.878ZM550.589 417.721C550.745 417.721 550.931 417.721 551.148 417.721C551.373 417.73 551.603 417.747 551.837 417.773C552.071 417.799 552.301 417.842 552.526 417.903C552.76 417.964 552.968 418.046 553.15 418.15C553.332 418.263 553.479 418.401 553.592 418.566C553.705 418.739 553.761 418.952 553.761 419.203C553.761 419.454 553.705 419.667 553.592 419.84C553.479 420.013 553.332 420.156 553.15 420.269C552.968 420.382 552.76 420.464 552.526 420.516C552.301 420.577 552.071 420.62 551.837 420.646C551.603 420.681 551.373 420.698 551.148 420.698C550.931 420.707 550.745 420.711 550.589 420.711C550.329 420.711 550.013 420.702 549.64 420.685C549.276 420.668 548.921 420.611 548.574 420.516C548.236 420.429 547.946 420.282 547.703 420.074C547.46 419.875 547.339 419.584 547.339 419.203C547.339 418.83 547.46 418.544 547.703 418.345C547.946 418.146 548.236 417.998 548.574 417.903C548.921 417.816 549.276 417.764 549.64 417.747C550.013 417.73 550.329 417.721 550.589 417.721ZM550.589 415.875C549.679 415.875 548.916 415.962 548.301 416.135C547.694 416.317 547.209 416.56 546.845 416.863C546.481 417.166 546.221 417.517 546.065 417.916C545.909 418.323 545.831 418.752 545.831 419.203C545.831 419.662 545.909 420.091 546.065 420.49C546.221 420.897 546.481 421.253 546.845 421.556C547.209 421.868 547.694 422.111 548.301 422.284C548.916 422.466 549.679 422.557 550.589 422.557C551.473 422.557 552.214 422.466 552.812 422.284C553.419 422.111 553.904 421.868 554.268 421.556C554.632 421.253 554.892 420.897 555.048 420.49C555.204 420.091 555.282 419.662 555.282 419.203C555.282 418.752 555.204 418.323 555.048 417.916C554.892 417.517 554.632 417.166 554.268 416.863C553.904 416.56 553.419 416.317 552.812 416.135C552.214 415.962 551.473 415.875 550.589 415.875ZM552.786 426.882L549.627 426.882L549.627 424.49L552.786 426.843L552.786 426.882ZM548.106 426.882L546 426.882L546 428.637L548.106 428.637L548.106 429.846L549.627 429.846L549.627 428.637L555.1 428.637L555.1 426.986L549.796 423.034L548.106 423.034L548.106 426.882Z" fill="#1D1D1D"/>
<rect opacity="0.2" x="178.5" y="357.628" width="128.303" height="59" transform="rotate(90 178.5 357.628)" stroke="#BDBDC2"/>
<path d="M152.579 415.549L154.1 415.549L154.1 410.466L149.069 409.569L149.069 411.233C149.32 411.415 149.502 411.61 149.615 411.818C149.736 412.026 149.797 412.295 149.797 412.624C149.797 412.876 149.754 413.097 149.667 413.287C149.58 413.478 149.459 413.643 149.303 413.781C149.147 413.92 148.965 414.024 148.757 414.093C148.549 414.163 148.328 414.197 148.094 414.197C147.869 414.197 147.648 414.158 147.431 414.08C147.223 414.011 147.037 413.907 146.872 413.768C146.716 413.638 146.586 413.474 146.482 413.274C146.387 413.084 146.339 412.867 146.339 412.624C146.339 412.208 146.46 411.866 146.703 411.597C146.954 411.329 147.288 411.173 147.704 411.129L147.704 409.283C147.227 409.292 146.807 409.387 146.443 409.569C146.088 409.76 145.789 410.011 145.546 410.323C145.303 410.635 145.121 410.991 145 411.389C144.887 411.797 144.831 412.221 144.831 412.663C144.822 413.123 144.896 413.556 145.052 413.963C145.217 414.371 145.446 414.726 145.741 415.029C146.036 415.341 146.382 415.588 146.781 415.77C147.188 415.952 147.626 416.043 148.094 416.043C148.519 416.043 148.917 415.978 149.29 415.848C149.671 415.727 150.001 415.545 150.278 415.302C150.555 415.068 150.776 414.778 150.941 414.431C151.106 414.085 151.188 413.686 151.188 413.235C151.188 412.871 151.132 412.546 151.019 412.26C150.915 411.974 150.737 411.706 150.486 411.454L150.512 411.428L152.579 411.792L152.579 415.549ZM145 421.369L154.1 421.369L154.1 419.9C153.753 419.848 153.463 419.739 153.229 419.575C152.995 419.41 152.804 419.206 152.657 418.964C152.518 418.73 152.419 418.461 152.358 418.158C152.306 417.863 152.284 417.555 152.293 417.235L150.902 417.235L150.902 419.523L145 419.523L145 421.369ZM149.719 427.214C149.719 427.448 149.667 427.652 149.563 427.825C149.468 428.007 149.338 428.155 149.173 428.267C149.017 428.38 148.835 428.462 148.627 428.514C148.428 428.575 148.22 428.605 148.003 428.605C147.795 428.605 147.591 428.575 147.392 428.514C147.193 428.454 147.015 428.363 146.859 428.241C146.703 428.12 146.577 427.973 146.482 427.799C146.387 427.635 146.339 427.44 146.339 427.214C146.339 426.98 146.387 426.772 146.482 426.59C146.577 426.408 146.703 426.252 146.859 426.122C147.024 426.001 147.206 425.906 147.405 425.836C147.613 425.776 147.821 425.745 148.029 425.745C148.254 425.745 148.467 425.776 148.666 425.836C148.874 425.897 149.056 425.988 149.212 426.109C149.368 426.231 149.489 426.382 149.576 426.564C149.671 426.755 149.719 426.972 149.719 427.214ZM151.76 428.54L151.76 430.295C152.167 430.243 152.527 430.135 152.839 429.97C153.151 429.806 153.411 429.593 153.619 429.333C153.836 429.073 154 428.774 154.113 428.436C154.226 428.098 154.282 427.734 154.282 427.344C154.282 426.694 154.139 426.144 153.853 425.693C153.567 425.243 153.194 424.874 152.735 424.588C152.284 424.302 151.777 424.094 151.214 423.964C150.651 423.834 150.087 423.769 149.524 423.769C148.943 423.769 148.371 423.821 147.808 423.925C147.253 424.029 146.755 424.216 146.313 424.484C145.871 424.753 145.511 425.113 145.234 425.563C144.965 426.014 144.831 426.582 144.831 427.266C144.831 427.743 144.913 428.176 145.078 428.566C145.251 428.956 145.485 429.29 145.78 429.567C146.083 429.853 146.434 430.07 146.833 430.217C147.24 430.373 147.678 430.451 148.146 430.451C148.51 430.451 148.87 430.395 149.225 430.282C149.58 430.17 149.897 429.992 150.174 429.749C150.46 429.489 150.685 429.173 150.85 428.8C151.023 428.428 151.11 428.046 151.11 427.656C151.11 427.214 151.032 426.824 150.876 426.486C150.72 426.148 150.46 425.854 150.096 425.602L150.122 425.576C150.373 425.585 150.659 425.62 150.98 425.68C151.301 425.741 151.6 425.836 151.877 425.966C152.163 426.096 152.401 426.27 152.592 426.486C152.791 426.712 152.891 426.989 152.891 427.318C152.891 427.639 152.778 427.908 152.553 428.124C152.328 428.341 152.063 428.48 151.76 428.54Z" fill="#1D1D1D"/>
<rect opacity="0.2" x="178.5" y="209.956" width="128.303" height="59" transform="rotate(90 178.5 209.956)" stroke="#BDBDC2"/>
<path d="M152.579 268.896L154.1 268.896L154.1 263.813L149.069 262.916L149.069 264.58C149.32 264.762 149.502 264.957 149.615 265.165C149.736 265.373 149.797 265.641 149.797 265.971C149.797 266.222 149.754 266.443 149.667 266.634C149.58 266.824 149.459 266.989 149.303 267.128C149.147 267.266 148.965 267.37 148.757 267.44C148.549 267.509 148.328 267.544 148.094 267.544C147.869 267.544 147.648 267.505 147.431 267.427C147.223 267.357 147.037 267.253 146.872 267.115C146.716 266.985 146.586 266.82 146.482 266.621C146.387 266.43 146.339 266.213 146.339 265.971C146.339 265.555 146.46 265.212 146.703 264.944C146.954 264.675 147.288 264.519 147.704 264.476L147.704 262.63C147.227 262.638 146.807 262.734 146.443 262.916C146.088 263.106 145.789 263.358 145.546 263.67C145.303 263.982 145.121 264.337 145 264.736C144.887 265.143 144.831 265.568 144.831 266.01C144.822 266.469 144.896 266.902 145.052 267.31C145.217 267.717 145.446 268.072 145.741 268.376C146.036 268.688 146.382 268.935 146.781 269.117C147.188 269.299 147.626 269.39 148.094 269.39C148.519 269.39 148.917 269.325 149.29 269.195C149.671 269.073 150.001 268.891 150.278 268.649C150.555 268.415 150.776 268.124 150.941 267.778C151.106 267.431 151.188 267.032 151.188 266.582C151.188 266.218 151.132 265.893 151.019 265.607C150.915 265.321 150.737 265.052 150.486 264.801L150.512 264.775L152.579 265.139L152.579 268.896ZM145 274.715L154.1 274.715L154.1 273.246C153.753 273.194 153.463 273.086 153.229 272.921C152.995 272.757 152.804 272.553 152.657 272.31C152.518 272.076 152.419 271.808 152.358 271.504C152.306 271.21 152.284 270.902 152.293 270.581L150.902 270.581L150.902 272.869L145 272.869L145 274.715ZM150.421 279.807L149.121 279.807C149.121 280.032 149.112 280.266 149.095 280.509C149.086 280.76 149.039 280.99 148.952 281.198C148.874 281.406 148.744 281.575 148.562 281.705C148.38 281.844 148.116 281.913 147.769 281.913C147.327 281.913 146.976 281.77 146.716 281.484C146.465 281.198 146.339 280.847 146.339 280.431C146.339 280.162 146.387 279.928 146.482 279.729C146.577 279.538 146.703 279.378 146.859 279.248C147.024 279.118 147.214 279.018 147.431 278.949C147.656 278.88 147.89 278.841 148.133 278.832L148.133 277.077C147.604 277.068 147.136 277.142 146.729 277.298C146.322 277.463 145.975 277.692 145.689 277.987C145.412 278.282 145.199 278.637 145.052 279.053C144.905 279.478 144.831 279.946 144.831 280.457C144.831 280.899 144.896 281.324 145.026 281.731C145.156 282.138 145.347 282.498 145.598 282.81C145.849 283.122 146.161 283.369 146.534 283.551C146.907 283.742 147.331 283.837 147.808 283.837C148.328 283.837 148.774 283.694 149.147 283.408C149.52 283.122 149.762 282.728 149.875 282.225L149.901 282.225C150.022 282.65 150.252 282.966 150.59 283.174C150.928 283.391 151.318 283.499 151.76 283.499C152.167 283.499 152.527 283.408 152.839 283.226C153.151 283.044 153.415 282.806 153.632 282.511C153.849 282.225 154.009 281.9 154.113 281.536C154.226 281.172 154.282 280.808 154.282 280.444C154.282 279.976 154.204 279.551 154.048 279.17C153.901 278.789 153.688 278.459 153.411 278.182C153.134 277.913 152.8 277.701 152.41 277.545C152.029 277.398 151.604 277.315 151.136 277.298L151.136 279.053C151.604 279.044 151.99 279.157 152.293 279.391C152.605 279.634 152.761 279.989 152.761 280.457C152.761 280.795 152.657 281.094 152.449 281.354C152.241 281.614 151.942 281.744 151.552 281.744C151.292 281.744 151.084 281.679 150.928 281.549C150.772 281.428 150.651 281.267 150.564 281.068C150.486 280.877 150.438 280.669 150.421 280.444C150.404 280.219 150.404 280.006 150.421 279.807Z" fill="#1D1D1D"/>
<rect opacity="0.2" x="379.5" y="357.628" width="128.303" height="59" transform="rotate(90 379.5 357.628)" stroke="#BDBDC2"/>
<path d="M353.579 415.549L355.1 415.549L355.1 410.466L350.069 409.569L350.069 411.233C350.32 411.415 350.502 411.61 350.615 411.818C350.736 412.026 350.797 412.295 350.797 412.624C350.797 412.876 350.754 413.097 350.667 413.287C350.58 413.478 350.459 413.643 350.303 413.781C350.147 413.92 349.965 414.024 349.757 414.093C349.549 414.163 349.328 414.197 349.094 414.197C348.869 414.197 348.648 414.158 348.431 414.08C348.223 414.011 348.037 413.907 347.872 413.768C347.716 413.638 347.586 413.474 347.482 413.274C347.387 413.084 347.339 412.867 347.339 412.624C347.339 412.208 347.46 411.866 347.703 411.597C347.954 411.329 348.288 411.173 348.704 411.129L348.704 409.283C348.227 409.292 347.807 409.387 347.443 409.569C347.088 409.76 346.789 410.011 346.546 410.323C346.303 410.635 346.121 410.991 346 411.389C345.887 411.797 345.831 412.221 345.831 412.663C345.822 413.123 345.896 413.556 346.052 413.963C346.217 414.371 346.446 414.726 346.741 415.029C347.036 415.341 347.382 415.588 347.781 415.77C348.188 415.952 348.626 416.043 349.094 416.043C349.519 416.043 349.917 415.978 350.29 415.848C350.671 415.727 351.001 415.545 351.278 415.302C351.555 415.068 351.776 414.778 351.941 414.431C352.106 414.085 352.188 413.686 352.188 413.235C352.188 412.871 352.132 412.546 352.019 412.26C351.915 411.974 351.737 411.706 351.486 411.454L351.512 411.428L353.579 411.792L353.579 415.549ZM346 421.369L355.1 421.369L355.1 419.9C354.753 419.848 354.463 419.739 354.229 419.575C353.995 419.41 353.804 419.206 353.657 418.964C353.518 418.73 353.419 418.461 353.358 418.158C353.306 417.863 353.284 417.555 353.293 417.235L351.902 417.235L351.902 419.523L346 419.523L346 421.369ZM350.589 425.615C350.745 425.615 350.931 425.615 351.148 425.615C351.373 425.624 351.603 425.641 351.837 425.667C352.071 425.693 352.301 425.737 352.526 425.797C352.76 425.858 352.968 425.94 353.15 426.044C353.332 426.157 353.479 426.296 353.592 426.46C353.705 426.634 353.761 426.846 353.761 427.097C353.761 427.349 353.705 427.561 353.592 427.734C353.479 427.908 353.332 428.051 353.15 428.163C352.968 428.276 352.76 428.358 352.526 428.41C352.301 428.471 352.071 428.514 351.837 428.54C351.603 428.575 351.373 428.592 351.148 428.592C350.931 428.601 350.745 428.605 350.589 428.605C350.329 428.605 350.013 428.597 349.64 428.579C349.276 428.562 348.921 428.506 348.574 428.41C348.236 428.324 347.946 428.176 347.703 427.968C347.46 427.769 347.339 427.479 347.339 427.097C347.339 426.725 347.46 426.439 347.703 426.239C347.946 426.04 348.236 425.893 348.574 425.797C348.921 425.711 349.276 425.659 349.64 425.641C350.013 425.624 350.329 425.615 350.589 425.615ZM350.589 423.769C349.679 423.769 348.916 423.856 348.301 424.029C347.694 424.211 347.209 424.454 346.845 424.757C346.481 425.061 346.221 425.412 346.065 425.81C345.909 426.218 345.831 426.647 345.831 427.097C345.831 427.557 345.909 427.986 346.065 428.384C346.221 428.792 346.481 429.147 346.845 429.45C347.209 429.762 347.694 430.005 348.301 430.178C348.916 430.36 349.679 430.451 350.589 430.451C351.473 430.451 352.214 430.36 352.812 430.178C353.419 430.005 353.904 429.762 354.268 429.45C354.632 429.147 354.892 428.792 355.048 428.384C355.204 427.986 355.282 427.557 355.282 427.097C355.282 426.647 355.204 426.218 355.048 425.81C354.892 425.412 354.632 425.061 354.268 424.757C353.904 424.454 353.419 424.211 352.812 424.029C352.214 423.856 351.473 423.769 350.589 423.769Z" fill="#1D1D1D"/>
<rect opacity="0.2" x="379.5" y="209.956" width="128.303" height="59" transform="rotate(90 379.5 209.956)" stroke="#BDBDC2"/>
<path d="M353.579 268.896L355.1 268.896L355.1 263.813L350.069 262.916L350.069 264.58C350.32 264.762 350.502 264.957 350.615 265.165C350.736 265.373 350.797 265.641 350.797 265.971C350.797 266.222 350.754 266.443 350.667 266.634C350.58 266.824 350.459 266.989 350.303 267.128C350.147 267.266 349.965 267.37 349.757 267.44C349.549 267.509 349.328 267.544 349.094 267.544C348.869 267.544 348.648 267.505 348.431 267.427C348.223 267.357 348.037 267.253 347.872 267.115C347.716 266.985 347.586 266.82 347.482 266.621C347.387 266.43 347.339 266.213 347.339 265.971C347.339 265.555 347.46 265.212 347.703 264.944C347.954 264.675 348.288 264.519 348.704 264.476L348.704 262.63C348.227 262.638 347.807 262.734 347.443 262.916C347.088 263.106 346.789 263.358 346.546 263.67C346.303 263.982 346.121 264.337 346 264.736C345.887 265.143 345.831 265.568 345.831 266.01C345.822 266.469 345.896 266.902 346.052 267.31C346.217 267.717 346.446 268.072 346.741 268.376C347.036 268.688 347.382 268.935 347.781 269.117C348.188 269.299 348.626 269.39 349.094 269.39C349.519 269.39 349.917 269.325 350.29 269.195C350.671 269.073 351.001 268.891 351.278 268.649C351.555 268.415 351.776 268.124 351.941 267.778C352.106 267.431 352.188 267.032 352.188 266.582C352.188 266.218 352.132 265.893 352.019 265.607C351.915 265.321 351.737 265.052 351.486 264.801L351.512 264.775L353.579 265.139L353.579 268.896ZM350.589 271.738C350.745 271.738 350.931 271.738 351.148 271.738C351.373 271.747 351.603 271.764 351.837 271.79C352.071 271.816 352.301 271.86 352.526 271.92C352.76 271.981 352.968 272.063 353.15 272.167C353.332 272.28 353.479 272.419 353.592 272.583C353.705 272.757 353.761 272.969 353.761 273.22C353.761 273.472 353.705 273.684 353.592 273.857C353.479 274.031 353.332 274.174 353.15 274.286C352.968 274.399 352.76 274.481 352.526 274.533C352.301 274.594 352.071 274.637 351.837 274.663C351.603 274.698 351.373 274.715 351.148 274.715C350.931 274.724 350.745 274.728 350.589 274.728C350.329 274.728 350.013 274.72 349.64 274.702C349.276 274.685 348.921 274.629 348.574 274.533C348.236 274.447 347.946 274.299 347.703 274.091C347.46 273.892 347.339 273.602 347.339 273.22C347.339 272.848 347.46 272.562 347.703 272.362C347.946 272.163 348.236 272.016 348.574 271.92C348.921 271.834 349.276 271.782 349.64 271.764C350.013 271.747 350.329 271.738 350.589 271.738ZM350.589 269.892C349.679 269.892 348.916 269.979 348.301 270.152C347.694 270.334 347.209 270.577 346.845 270.88C346.481 271.184 346.221 271.535 346.065 271.933C345.909 272.341 345.831 272.77 345.831 273.22C345.831 273.68 345.909 274.109 346.065 274.507C346.221 274.915 346.481 275.27 346.845 275.573C347.209 275.885 347.694 276.128 348.301 276.301C348.916 276.483 349.679 276.574 350.589 276.574C351.473 276.574 352.214 276.483 352.812 276.301C353.419 276.128 353.904 275.885 354.268 275.573C354.632 275.27 354.892 274.915 355.048 274.507C355.204 274.109 355.282 273.68 355.282 273.22C355.282 272.77 355.204 272.341 355.048 271.933C354.892 271.535 354.632 271.184 354.268 270.88C353.904 270.577 353.419 270.334 352.812 270.152C352.214 269.979 351.473 269.892 350.589 269.892ZM353.514 283.564L355.1 283.564L355.1 277.35L353.384 277.35L353.384 281.666C352.335 280.799 351.183 280.097 349.926 279.56C348.669 279.031 347.361 278.715 346 278.611L346 280.587C346.607 280.596 347.261 280.665 347.963 280.795C348.665 280.934 349.358 281.124 350.043 281.367C350.728 281.618 351.373 281.926 351.98 282.29C352.587 282.663 353.098 283.087 353.514 283.564Z" fill="#1D1D1D"/>
<rect opacity="0.2" x="513.5" y="209.956" width="128.303" height="59" transform="rotate(90 513.5 209.956)" stroke="#BDBDC2"/>
<path d="M487.579 267.225L489.1 267.225L489.1 262.142L484.069 261.245L484.069 262.909C484.32 263.091 484.502 263.286 484.615 263.494C484.736 263.702 484.797 263.97 484.797 264.3C484.797 264.551 484.754 264.772 484.667 264.963C484.58 265.153 484.459 265.318 484.303 265.457C484.147 265.595 483.965 265.699 483.757 265.769C483.549 265.838 483.328 265.873 483.094 265.873C482.869 265.873 482.648 265.834 482.431 265.756C482.223 265.686 482.037 265.582 481.872 265.444C481.716 265.314 481.586 265.149 481.482 264.95C481.387 264.759 481.339 264.542 481.339 264.3C481.339 263.884 481.46 263.541 481.703 263.273C481.954 263.004 482.288 262.848 482.704 262.805L482.704 260.959C482.227 260.967 481.807 261.063 481.443 261.245C481.088 261.435 480.789 261.687 480.546 261.999C480.303 262.311 480.121 262.666 480 263.065C479.887 263.472 479.831 263.897 479.831 264.339C479.822 264.798 479.896 265.231 480.052 265.639C480.217 266.046 480.446 266.401 480.741 266.705C481.036 267.017 481.382 267.264 481.781 267.446C482.188 267.628 482.626 267.719 483.094 267.719C483.519 267.719 483.917 267.654 484.29 267.524C484.671 267.402 485.001 267.22 485.278 266.978C485.555 266.744 485.776 266.453 485.941 266.107C486.106 265.76 486.188 265.361 486.188 264.911C486.188 264.547 486.132 264.222 486.019 263.936C485.915 263.65 485.737 263.381 485.486 263.13L485.512 263.104L487.579 263.468L487.579 267.225ZM484.589 270.067C484.745 270.067 484.931 270.067 485.148 270.067C485.373 270.076 485.603 270.093 485.837 270.119C486.071 270.145 486.301 270.189 486.526 270.249C486.76 270.31 486.968 270.392 487.15 270.496C487.332 270.609 487.479 270.748 487.592 270.912C487.705 271.086 487.761 271.298 487.761 271.549C487.761 271.801 487.705 272.013 487.592 272.186C487.479 272.36 487.332 272.503 487.15 272.615C486.968 272.728 486.76 272.81 486.526 272.862C486.301 272.923 486.071 272.966 485.837 272.992C485.603 273.027 485.373 273.044 485.148 273.044C484.931 273.053 484.745 273.057 484.589 273.057C484.329 273.057 484.013 273.049 483.64 273.031C483.276 273.014 482.921 272.958 482.574 272.862C482.236 272.776 481.946 272.628 481.703 272.42C481.46 272.221 481.339 271.931 481.339 271.549C481.339 271.177 481.46 270.891 481.703 270.691C481.946 270.492 482.236 270.345 482.574 270.249C482.921 270.163 483.276 270.111 483.64 270.093C484.013 270.076 484.329 270.067 484.589 270.067ZM484.589 268.221C483.679 268.221 482.916 268.308 482.301 268.481C481.694 268.663 481.209 268.906 480.845 269.209C480.481 269.513 480.221 269.864 480.065 270.262C479.909 270.67 479.831 271.099 479.831 271.549C479.831 272.009 479.909 272.438 480.065 272.836C480.221 273.244 480.481 273.599 480.845 273.902C481.209 274.214 481.694 274.457 482.301 274.63C482.916 274.812 483.679 274.903 484.589 274.903C485.473 274.903 486.214 274.812 486.812 274.63C487.419 274.457 487.904 274.214 488.268 273.902C488.632 273.599 488.892 273.244 489.048 272.836C489.204 272.438 489.282 272.009 489.282 271.549C489.282 271.099 489.204 270.67 489.048 270.262C488.892 269.864 488.632 269.513 488.268 269.209C487.904 268.906 487.419 268.663 486.812 268.481C486.214 268.308 485.473 268.221 484.589 268.221ZM485.421 278.136L484.121 278.136C484.121 278.361 484.112 278.595 484.095 278.838C484.086 279.089 484.039 279.319 483.952 279.527C483.874 279.735 483.744 279.904 483.562 280.034C483.38 280.173 483.116 280.242 482.769 280.242C482.327 280.242 481.976 280.099 481.716 279.813C481.465 279.527 481.339 279.176 481.339 278.76C481.339 278.491 481.387 278.257 481.482 278.058C481.577 277.867 481.703 277.707 481.859 277.577C482.024 277.447 482.214 277.347 482.431 277.278C482.656 277.209 482.89 277.17 483.133 277.161L483.133 275.406C482.604 275.397 482.136 275.471 481.729 275.627C481.322 275.792 480.975 276.021 480.689 276.316C480.412 276.611 480.199 276.966 480.052 277.382C479.905 277.807 479.831 278.275 479.831 278.786C479.831 279.228 479.896 279.653 480.026 280.06C480.156 280.467 480.347 280.827 480.598 281.139C480.849 281.451 481.161 281.698 481.534 281.88C481.907 282.071 482.331 282.166 482.808 282.166C483.328 282.166 483.774 282.023 484.147 281.737C484.52 281.451 484.762 281.057 484.875 280.554L484.901 280.554C485.022 280.979 485.252 281.295 485.59 281.503C485.928 281.72 486.318 281.828 486.76 281.828C487.167 281.828 487.527 281.737 487.839 281.555C488.151 281.373 488.415 281.135 488.632 280.84C488.849 280.554 489.009 280.229 489.113 279.865C489.226 279.501 489.282 279.137 489.282 278.773C489.282 278.305 489.204 277.88 489.048 277.499C488.901 277.118 488.688 276.788 488.411 276.511C488.134 276.242 487.8 276.03 487.41 275.874C487.029 275.727 486.604 275.644 486.136 275.627L486.136 277.382C486.604 277.373 486.99 277.486 487.293 277.72C487.605 277.963 487.761 278.318 487.761 278.786C487.761 279.124 487.657 279.423 487.449 279.683C487.241 279.943 486.942 280.073 486.552 280.073C486.292 280.073 486.084 280.008 485.928 279.878C485.772 279.757 485.651 279.596 485.564 279.397C485.486 279.206 485.438 278.998 485.421 278.773C485.404 278.548 485.404 278.335 485.421 278.136Z" fill="#1D1D1D"/>
<rect opacity="0.2" x="513.5" y="357.628" width="128.303" height="59" transform="rotate(90 513.5 357.628)" stroke="#BDBDC2"/>
<path d="M487.579 414.878L489.1 414.878L489.1 409.795L484.069 408.898L484.069 410.562C484.32 410.744 484.502 410.939 484.615 411.147C484.736 411.355 484.797 411.624 484.797 411.953C484.797 412.205 484.754 412.426 484.667 412.616C484.58 412.807 484.459 412.972 484.303 413.11C484.147 413.249 483.965 413.353 483.757 413.422C483.549 413.492 483.328 413.526 483.094 413.526C482.869 413.526 482.648 413.487 482.431 413.409C482.223 413.34 482.037 413.236 481.872 413.097C481.716 412.967 481.586 412.803 481.482 412.603C481.387 412.413 481.339 412.196 481.339 411.953C481.339 411.537 481.46 411.195 481.703 410.926C481.954 410.658 482.288 410.502 482.704 410.458L482.704 408.612C482.227 408.621 481.807 408.716 481.443 408.898C481.088 409.089 480.789 409.34 480.546 409.652C480.303 409.964 480.121 410.32 480 410.718C479.887 411.126 479.831 411.55 479.831 411.992C479.822 412.452 479.896 412.885 480.052 413.292C480.217 413.7 480.446 414.055 480.741 414.358C481.036 414.67 481.382 414.917 481.781 415.099C482.188 415.281 482.626 415.372 483.094 415.372C483.519 415.372 483.917 415.307 484.29 415.177C484.671 415.056 485.001 414.874 485.278 414.631C485.555 414.397 485.776 414.107 485.941 413.76C486.106 413.414 486.188 413.015 486.188 412.564C486.188 412.2 486.132 411.875 486.019 411.589C485.915 411.303 485.737 411.035 485.486 410.783L485.512 410.757L487.579 411.121L487.579 414.878ZM484.589 417.721C484.745 417.721 484.931 417.721 485.148 417.721C485.373 417.73 485.603 417.747 485.837 417.773C486.071 417.799 486.301 417.842 486.526 417.903C486.76 417.964 486.968 418.046 487.15 418.15C487.332 418.263 487.479 418.401 487.592 418.566C487.705 418.739 487.761 418.952 487.761 419.203C487.761 419.454 487.705 419.667 487.592 419.84C487.479 420.013 487.332 420.156 487.15 420.269C486.968 420.382 486.76 420.464 486.526 420.516C486.301 420.577 486.071 420.62 485.837 420.646C485.603 420.681 485.373 420.698 485.148 420.698C484.931 420.707 484.745 420.711 484.589 420.711C484.329 420.711 484.013 420.702 483.64 420.685C483.276 420.668 482.921 420.611 482.574 420.516C482.236 420.429 481.946 420.282 481.703 420.074C481.46 419.875 481.339 419.584 481.339 419.203C481.339 418.83 481.46 418.544 481.703 418.345C481.946 418.146 482.236 417.998 482.574 417.903C482.921 417.816 483.276 417.764 483.64 417.747C484.013 417.73 484.329 417.721 484.589 417.721ZM484.589 415.875C483.679 415.875 482.916 415.962 482.301 416.135C481.694 416.317 481.209 416.56 480.845 416.863C480.481 417.166 480.221 417.517 480.065 417.916C479.909 418.323 479.831 418.752 479.831 419.203C479.831 419.662 479.909 420.091 480.065 420.49C480.221 420.897 480.481 421.253 480.845 421.556C481.209 421.868 481.694 422.111 482.301 422.284C482.916 422.466 483.679 422.557 484.589 422.557C485.473 422.557 486.214 422.466 486.812 422.284C487.419 422.111 487.904 421.868 488.268 421.556C488.632 421.253 488.892 420.897 489.048 420.49C489.204 420.091 489.282 419.662 489.282 419.203C489.282 418.752 489.204 418.323 489.048 417.916C488.892 417.517 488.632 417.166 488.268 416.863C487.904 416.56 487.419 416.317 486.812 416.135C486.214 415.962 485.473 415.875 484.589 415.875ZM484.719 426.544C484.719 426.778 484.667 426.981 484.563 427.155C484.468 427.337 484.338 427.484 484.173 427.597C484.017 427.709 483.835 427.792 483.627 427.844C483.428 427.904 483.22 427.935 483.003 427.935C482.795 427.935 482.591 427.904 482.392 427.844C482.193 427.783 482.015 427.692 481.859 427.571C481.703 427.449 481.577 427.302 481.482 427.129C481.387 426.964 481.339 426.769 481.339 426.544C481.339 426.31 481.387 426.102 481.482 425.92C481.577 425.738 481.703 425.582 481.859 425.452C482.024 425.33 482.206 425.235 482.405 425.166C482.613 425.105 482.821 425.075 483.029 425.075C483.254 425.075 483.467 425.105 483.666 425.166C483.874 425.226 484.056 425.317 484.212 425.439C484.368 425.56 484.489 425.712 484.576 425.894C484.671 426.084 484.719 426.301 484.719 426.544ZM486.76 427.87L486.76 429.625C487.167 429.573 487.527 429.464 487.839 429.3C488.151 429.135 488.411 428.923 488.619 428.663C488.836 428.403 489 428.104 489.113 427.766C489.226 427.428 489.282 427.064 489.282 426.674C489.282 426.024 489.139 425.473 488.853 425.023C488.567 424.572 488.194 424.204 487.735 423.918C487.284 423.632 486.777 423.424 486.214 423.294C485.651 423.164 485.087 423.099 484.524 423.099C483.943 423.099 483.371 423.151 482.808 423.255C482.253 423.359 481.755 423.545 481.313 423.814C480.871 424.082 480.511 424.442 480.234 424.893C479.965 425.343 479.831 425.911 479.831 426.596C479.831 427.072 479.913 427.506 480.078 427.896C480.251 428.286 480.485 428.619 480.78 428.897C481.083 429.183 481.434 429.399 481.833 429.547C482.24 429.703 482.678 429.781 483.146 429.781C483.51 429.781 483.87 429.724 484.225 429.612C484.58 429.499 484.897 429.321 485.174 429.079C485.46 428.819 485.685 428.502 485.85 428.13C486.023 427.757 486.11 427.376 486.11 426.986C486.11 426.544 486.032 426.154 485.876 425.816C485.72 425.478 485.46 425.183 485.096 424.932L485.122 424.906C485.373 424.914 485.659 424.949 485.98 425.01C486.301 425.07 486.6 425.166 486.877 425.296C487.163 425.426 487.401 425.599 487.592 425.816C487.791 426.041 487.891 426.318 487.891 426.648C487.891 426.968 487.778 427.237 487.553 427.454C487.328 427.67 487.063 427.809 486.76 427.87Z" fill="#1D1D1D"/>
<rect opacity="0.2" x="112.5" y="357.628" width="128.303" height="60" transform="rotate(90 112.5 357.628)" stroke="#BDBDC2"/>
<path d="M86.579 415.549L88.1 415.549L88.1 410.466L83.069 409.569L83.069 411.233C83.3203 411.415 83.5023 411.61 83.615 411.818C83.7363 412.026 83.797 412.295 83.797 412.624C83.797 412.876 83.7537 413.097 83.667 413.287C83.5803 413.478 83.459 413.643 83.303 413.781C83.147 413.92 82.965 414.024 82.757 414.093C82.549 414.163 82.328 414.197 82.094 414.197C81.8687 414.197 81.6477 414.158 81.431 414.08C81.223 414.011 81.0367 413.907 80.872 413.768C80.716 413.638 80.586 413.474 80.482 413.274C80.3867 413.084 80.339 412.867 80.339 412.624C80.339 412.208 80.4603 411.866 80.703 411.597C80.9543 411.329 81.288 411.173 81.704 411.129L81.704 409.283C81.2273 409.292 80.807 409.387 80.443 409.569C80.0877 409.76 79.7887 410.011 79.546 410.323C79.3033 410.635 79.1213 410.991 79 411.389C78.8873 411.797 78.831 412.221 78.831 412.663C78.8223 413.123 78.896 413.556 79.052 413.963C79.2167 414.371 79.4463 414.726 79.741 415.029C80.0357 415.341 80.3823 415.588 80.781 415.77C81.1883 415.952 81.626 416.043 82.094 416.043C82.5187 416.043 82.9173 415.978 83.29 415.848C83.6713 415.727 84.0007 415.545 84.278 415.302C84.5553 415.068 84.7763 414.778 84.941 414.431C85.1057 414.085 85.188 413.686 85.188 413.235C85.188 412.871 85.1317 412.546 85.019 412.26C84.915 411.974 84.7373 411.706 84.486 411.454L84.512 411.428L86.579 411.792L86.579 415.549ZM79 421.369L88.1 421.369L88.1 419.9C87.7533 419.848 87.463 419.739 87.229 419.575C86.995 419.41 86.8043 419.206 86.657 418.964C86.5183 418.73 86.4187 418.461 86.358 418.158C86.306 417.863 86.2843 417.555 86.293 417.235L84.902 417.235L84.902 419.523L79 419.523L79 421.369ZM85.63 425.732C85.838 425.732 86.02 425.767 86.176 425.836C86.332 425.914 86.462 426.018 86.566 426.148C86.67 426.278 86.748 426.426 86.8 426.59C86.8607 426.764 86.891 426.941 86.891 427.123C86.891 427.409 86.8477 427.639 86.761 427.812C86.6743 427.994 86.566 428.133 86.436 428.228C86.306 428.332 86.1673 428.402 86.02 428.436C85.8813 428.471 85.7513 428.488 85.63 428.488C85.24 428.488 84.941 428.358 84.733 428.098C84.5337 427.838 84.434 427.513 84.434 427.123C84.434 426.751 84.5337 426.426 84.733 426.148C84.941 425.871 85.24 425.732 85.63 425.732ZM85.799 424.055C85.3483 424.055 84.954 424.168 84.616 424.393C84.278 424.619 84.0483 424.952 83.927 425.394L83.901 425.394C83.771 424.848 83.511 424.424 83.121 424.12C82.731 423.826 82.2457 423.678 81.665 423.678C81.171 423.678 80.7463 423.774 80.391 423.964C80.0357 424.164 79.741 424.424 79.507 424.744C79.273 425.074 79.104 425.442 79 425.849C78.8873 426.265 78.831 426.694 78.831 427.136C78.831 427.561 78.8873 427.977 79 428.384C79.1213 428.792 79.299 429.156 79.533 429.476C79.767 429.797 80.0617 430.053 80.417 430.243C80.7723 430.443 81.1927 430.542 81.678 430.542C82.25 430.542 82.731 430.395 83.121 430.1C83.5197 429.806 83.7797 429.385 83.901 428.839L83.927 428.839C84.0743 429.281 84.317 429.611 84.655 429.827C84.993 430.053 85.3873 430.165 85.838 430.165C86.0633 430.165 86.3147 430.113 86.592 430.009C86.878 429.905 87.1423 429.732 87.385 429.489C87.6363 429.255 87.8487 428.943 88.022 428.553C88.1953 428.163 88.282 427.687 88.282 427.123C88.282 426.751 88.23 426.382 88.126 426.018C88.022 425.654 87.866 425.325 87.658 425.03C87.45 424.744 87.19 424.51 86.878 424.328C86.566 424.146 86.2063 424.055 85.799 424.055ZM81.756 425.524C82.224 425.524 82.5793 425.68 82.822 425.992C83.0733 426.304 83.199 426.686 83.199 427.136C83.199 427.353 83.1643 427.552 83.095 427.734C83.0257 427.925 82.926 428.09 82.796 428.228C82.666 428.376 82.51 428.488 82.328 428.566C82.1547 428.653 81.9597 428.696 81.743 428.696C81.5177 428.696 81.3097 428.657 81.119 428.579C80.9283 428.501 80.7637 428.389 80.625 428.241C80.495 428.103 80.391 427.938 80.313 427.747C80.2437 427.565 80.209 427.362 80.209 427.136C80.209 426.92 80.2437 426.712 80.313 426.512C80.391 426.313 80.495 426.14 80.625 425.992C80.7637 425.854 80.9283 425.741 81.119 425.654C81.3097 425.568 81.522 425.524 81.756 425.524Z" fill="#1D1D1D"/>
<rect opacity="0.2" x="112.5" y="209.956" width="128.303" height="60" transform="rotate(90 112.5 209.956)" stroke="#BDBDC2"/>
<path d="M86.579 268.896L88.1 268.896L88.1 263.813L83.069 262.916L83.069 264.58C83.3203 264.762 83.5023 264.957 83.615 265.165C83.7363 265.373 83.797 265.641 83.797 265.971C83.797 266.222 83.7537 266.443 83.667 266.634C83.5803 266.824 83.459 266.989 83.303 267.128C83.147 267.266 82.965 267.37 82.757 267.44C82.549 267.509 82.328 267.544 82.094 267.544C81.8687 267.544 81.6477 267.505 81.431 267.427C81.223 267.357 81.0367 267.253 80.872 267.115C80.716 266.985 80.586 266.82 80.482 266.621C80.3867 266.43 80.339 266.213 80.339 265.971C80.339 265.555 80.4603 265.212 80.703 264.944C80.9543 264.675 81.288 264.519 81.704 264.476L81.704 262.63C81.2273 262.638 80.807 262.734 80.443 262.916C80.0877 263.106 79.7887 263.358 79.546 263.67C79.3033 263.982 79.1213 264.337 79 264.736C78.8873 265.143 78.831 265.568 78.831 266.01C78.8223 266.469 78.896 266.902 79.052 267.31C79.2167 267.717 79.4463 268.072 79.741 268.376C80.0357 268.688 80.3823 268.935 80.781 269.117C81.1883 269.299 81.626 269.39 82.094 269.39C82.5187 269.39 82.9173 269.325 83.29 269.195C83.6713 269.073 84.0007 268.891 84.278 268.649C84.5553 268.415 84.7763 268.124 84.941 267.778C85.1057 267.431 85.188 267.032 85.188 266.582C85.188 266.218 85.1317 265.893 85.019 265.607C84.915 265.321 84.7373 265.052 84.486 264.801L84.512 264.775L86.579 265.139L86.579 268.896ZM79 274.715L88.1 274.715L88.1 273.246C87.7533 273.194 87.463 273.086 87.229 272.921C86.995 272.757 86.8043 272.553 86.657 272.31C86.5183 272.076 86.4187 271.808 86.358 271.504C86.306 271.21 86.2843 270.902 86.293 270.581L84.902 270.581L84.902 272.869L79 272.869L79 274.715ZM86.579 283.343L88.1 283.343L88.1 278.26L83.069 277.363L83.069 279.027C83.3203 279.209 83.5023 279.404 83.615 279.612C83.7363 279.82 83.797 280.089 83.797 280.418C83.797 280.669 83.7537 280.89 83.667 281.081C83.5803 281.272 83.459 281.436 83.303 281.575C83.147 281.714 82.965 281.818 82.757 281.887C82.549 281.956 82.328 281.991 82.094 281.991C81.8687 281.991 81.6477 281.952 81.431 281.874C81.223 281.805 81.0367 281.701 80.872 281.562C80.716 281.432 80.586 281.267 80.482 281.068C80.3867 280.877 80.339 280.661 80.339 280.418C80.339 280.002 80.4603 279.66 80.703 279.391C80.9543 279.122 81.288 278.966 81.704 278.923L81.704 277.077C81.2273 277.086 80.807 277.181 80.443 277.363C80.0877 277.554 79.7887 277.805 79.546 278.117C79.3033 278.429 79.1213 278.784 79 279.183C78.8873 279.59 78.831 280.015 78.831 280.457C78.8223 280.916 78.896 281.35 79.052 281.757C79.2167 282.164 79.4463 282.52 79.741 282.823C80.0357 283.135 80.3823 283.382 80.781 283.564C81.1883 283.746 81.626 283.837 82.094 283.837C82.5187 283.837 82.9173 283.772 83.29 283.642C83.6713 283.521 84.0007 283.339 84.278 283.096C84.5553 282.862 84.7763 282.572 84.941 282.225C85.1057 281.878 85.188 281.48 85.188 281.029C85.188 280.665 85.1317 280.34 85.019 280.054C84.915 279.768 84.7373 279.499 84.486 279.248L84.512 279.222L86.579 279.586L86.579 283.343Z" fill="#1D1D1D"/>
<rect opacity="0.2" x="313.5" y="357.628" width="128.303" height="60" transform="rotate(90 313.5 357.628)" stroke="#BDBDC2"/>
<path d="M287.579 415.549L289.1 415.549L289.1 410.466L284.069 409.569L284.069 411.233C284.32 411.415 284.502 411.61 284.615 411.818C284.736 412.026 284.797 412.295 284.797 412.624C284.797 412.876 284.754 413.097 284.667 413.287C284.58 413.478 284.459 413.643 284.303 413.781C284.147 413.92 283.965 414.024 283.757 414.093C283.549 414.163 283.328 414.197 283.094 414.197C282.869 414.197 282.648 414.158 282.431 414.08C282.223 414.011 282.037 413.907 281.872 413.768C281.716 413.638 281.586 413.474 281.482 413.274C281.387 413.084 281.339 412.867 281.339 412.624C281.339 412.208 281.46 411.866 281.703 411.597C281.954 411.329 282.288 411.173 282.704 411.129L282.704 409.283C282.227 409.292 281.807 409.387 281.443 409.569C281.088 409.76 280.789 410.011 280.546 410.323C280.303 410.635 280.121 410.991 280 411.389C279.887 411.797 279.831 412.221 279.831 412.663C279.822 413.123 279.896 413.556 280.052 413.963C280.217 414.371 280.446 414.726 280.741 415.029C281.036 415.341 281.382 415.588 281.781 415.77C282.188 415.952 282.626 416.043 283.094 416.043C283.519 416.043 283.917 415.978 284.29 415.848C284.671 415.727 285.001 415.545 285.278 415.302C285.555 415.068 285.776 414.778 285.941 414.431C286.106 414.085 286.188 413.686 286.188 413.235C286.188 412.871 286.132 412.546 286.019 412.26C285.915 411.974 285.737 411.706 285.486 411.454L285.512 411.428L287.579 411.792L287.579 415.549ZM280 421.369L289.1 421.369L289.1 419.9C288.753 419.848 288.463 419.739 288.229 419.575C287.995 419.41 287.804 419.206 287.657 418.964C287.518 418.73 287.419 418.461 287.358 418.158C287.306 417.863 287.284 417.555 287.293 417.235L285.902 417.235L285.902 419.523L280 419.523L280 421.369ZM285.603 423.977L285.603 425.745C285.846 425.745 286.088 425.767 286.331 425.81C286.582 425.862 286.808 425.945 287.007 426.057C287.215 426.17 287.38 426.317 287.501 426.499C287.631 426.69 287.696 426.92 287.696 427.188C287.696 427.587 287.57 427.912 287.319 428.163C287.076 428.423 286.734 428.553 286.292 428.553C286.015 428.553 285.768 428.488 285.551 428.358C285.334 428.237 285.139 428.081 284.966 427.89C284.793 427.708 284.632 427.505 284.485 427.279C284.346 427.054 284.208 426.842 284.069 426.642C283.8 426.252 283.536 425.88 283.276 425.524C283.016 425.178 282.73 424.874 282.418 424.614C282.115 424.354 281.768 424.146 281.378 423.99C280.988 423.843 280.529 423.769 280 423.769L280 430.451L281.586 430.451L281.586 426.148C281.898 426.374 282.171 426.634 282.405 426.928C282.639 427.223 282.856 427.526 283.055 427.838C283.263 428.15 283.471 428.458 283.679 428.761C283.887 429.073 284.117 429.351 284.368 429.593C284.628 429.836 284.923 430.031 285.252 430.178C285.581 430.326 285.976 430.399 286.435 430.399C286.877 430.399 287.276 430.313 287.631 430.139C287.986 429.975 288.285 429.749 288.528 429.463C288.771 429.177 288.957 428.844 289.087 428.462C289.217 428.09 289.282 427.695 289.282 427.279C289.282 426.733 289.187 426.248 288.996 425.823C288.814 425.407 288.554 425.061 288.216 424.783C287.887 424.506 287.497 424.298 287.046 424.159C286.604 424.021 286.123 423.96 285.603 423.977Z" fill="#1D1D1D"/>
<rect opacity="0.2" x="313.5" y="209.956" width="128.303" height="60" transform="rotate(90 313.5 209.956)" stroke="#BDBDC2"/>
<path d="M287.579 268.896L289.1 268.896L289.1 263.813L284.069 262.916L284.069 264.58C284.32 264.762 284.502 264.957 284.615 265.165C284.736 265.373 284.797 265.641 284.797 265.971C284.797 266.222 284.754 266.443 284.667 266.634C284.58 266.824 284.459 266.989 284.303 267.128C284.147 267.266 283.965 267.37 283.757 267.44C283.549 267.509 283.328 267.544 283.094 267.544C282.869 267.544 282.648 267.505 282.431 267.427C282.223 267.357 282.037 267.253 281.872 267.115C281.716 266.985 281.586 266.82 281.482 266.621C281.387 266.43 281.339 266.213 281.339 265.971C281.339 265.555 281.46 265.212 281.703 264.944C281.954 264.675 282.288 264.519 282.704 264.476L282.704 262.63C282.227 262.638 281.807 262.734 281.443 262.916C281.088 263.106 280.789 263.358 280.546 263.67C280.303 263.982 280.121 264.337 280 264.736C279.887 265.143 279.831 265.568 279.831 266.01C279.822 266.469 279.896 266.902 280.052 267.31C280.217 267.717 280.446 268.072 280.741 268.376C281.036 268.688 281.382 268.935 281.781 269.117C282.188 269.299 282.626 269.39 283.094 269.39C283.519 269.39 283.917 269.325 284.29 269.195C284.671 269.073 285.001 268.891 285.278 268.649C285.555 268.415 285.776 268.124 285.941 267.778C286.106 267.431 286.188 267.032 286.188 266.582C286.188 266.218 286.132 265.893 286.019 265.607C285.915 265.321 285.737 265.052 285.486 264.801L285.512 264.775L287.579 265.139L287.579 268.896ZM284.589 271.738C284.745 271.738 284.931 271.738 285.148 271.738C285.373 271.747 285.603 271.764 285.837 271.79C286.071 271.816 286.301 271.86 286.526 271.92C286.76 271.981 286.968 272.063 287.15 272.167C287.332 272.28 287.479 272.419 287.592 272.583C287.705 272.757 287.761 272.969 287.761 273.22C287.761 273.472 287.705 273.684 287.592 273.857C287.479 274.031 287.332 274.174 287.15 274.286C286.968 274.399 286.76 274.481 286.526 274.533C286.301 274.594 286.071 274.637 285.837 274.663C285.603 274.698 285.373 274.715 285.148 274.715C284.931 274.724 284.745 274.728 284.589 274.728C284.329 274.728 284.013 274.72 283.64 274.702C283.276 274.685 282.921 274.629 282.574 274.533C282.236 274.447 281.946 274.299 281.703 274.091C281.46 273.892 281.339 273.602 281.339 273.22C281.339 272.848 281.46 272.562 281.703 272.362C281.946 272.163 282.236 272.016 282.574 271.92C282.921 271.834 283.276 271.782 283.64 271.764C284.013 271.747 284.329 271.738 284.589 271.738ZM284.589 269.892C283.679 269.892 282.916 269.979 282.301 270.152C281.694 270.334 281.209 270.577 280.845 270.88C280.481 271.184 280.221 271.535 280.065 271.933C279.909 272.341 279.831 272.77 279.831 273.22C279.831 273.68 279.909 274.109 280.065 274.507C280.221 274.915 280.481 275.27 280.845 275.573C281.209 275.885 281.694 276.128 282.301 276.301C282.916 276.483 283.679 276.574 284.589 276.574C285.473 276.574 286.214 276.483 286.812 276.301C287.419 276.128 287.904 275.885 288.268 275.573C288.632 275.27 288.892 274.915 289.048 274.507C289.204 274.109 289.282 273.68 289.282 273.22C289.282 272.77 289.204 272.341 289.048 271.933C288.892 271.535 288.632 271.184 288.268 270.88C287.904 270.577 287.419 270.334 286.812 270.152C286.214 269.979 285.473 269.892 284.589 269.892ZM284.381 280.353C284.381 280.119 284.429 279.911 284.524 279.729C284.628 279.556 284.758 279.413 284.914 279.3C285.079 279.187 285.261 279.101 285.46 279.04C285.668 278.988 285.88 278.962 286.097 278.962C286.305 278.962 286.509 278.992 286.708 279.053C286.907 279.114 287.085 279.205 287.241 279.326C287.397 279.447 287.523 279.595 287.618 279.768C287.713 279.941 287.761 280.136 287.761 280.353C287.761 280.587 287.713 280.795 287.618 280.977C287.523 281.159 287.393 281.311 287.228 281.432C287.072 281.562 286.89 281.657 286.682 281.718C286.483 281.787 286.279 281.822 286.071 281.822C285.846 281.822 285.629 281.792 285.421 281.731C285.222 281.67 285.044 281.579 284.888 281.458C284.732 281.337 284.606 281.185 284.511 281.003C284.424 280.821 284.381 280.604 284.381 280.353ZM282.34 279.027L282.34 277.272C281.941 277.324 281.586 277.432 281.274 277.597C280.962 277.762 280.698 277.974 280.481 278.234C280.264 278.494 280.104 278.793 280 279.131C279.887 279.469 279.831 279.833 279.831 280.223C279.831 280.873 279.97 281.423 280.247 281.874C280.533 282.325 280.901 282.693 281.352 282.979C281.811 283.265 282.323 283.473 282.886 283.603C283.449 283.733 284.013 283.798 284.576 283.798C285.148 283.798 285.716 283.746 286.279 283.642C286.842 283.538 287.345 283.352 287.787 283.083C288.238 282.814 288.597 282.455 288.866 282.004C289.143 281.562 289.282 280.994 289.282 280.301C289.282 279.824 289.195 279.391 289.022 279.001C288.849 278.611 288.61 278.273 288.307 277.987C288.012 277.71 287.661 277.493 287.254 277.337C286.855 277.19 286.422 277.116 285.954 277.116C285.59 277.116 285.23 277.172 284.875 277.285C284.52 277.398 284.203 277.575 283.926 277.818C283.64 278.078 283.41 278.394 283.237 278.767C283.072 279.14 282.99 279.521 282.99 279.911C282.99 280.353 283.068 280.743 283.224 281.081C283.38 281.419 283.64 281.714 284.004 281.965L283.978 281.991C283.727 281.974 283.441 281.935 283.12 281.874C282.799 281.822 282.496 281.731 282.21 281.601C281.933 281.471 281.694 281.298 281.495 281.081C281.304 280.864 281.209 280.587 281.209 280.249C281.209 279.928 281.322 279.66 281.547 279.443C281.772 279.226 282.037 279.088 282.34 279.027Z" fill="#1D1D1D"/>
<path d="M281.952 171.288C281.952 175.11 284.108 176.832 286.74 176.832C289.358 176.832 291.57 175.11 291.57 171.288C291.57 167.452 289.344 165.744 286.74 165.744C284.192 165.744 281.952 167.452 281.952 171.288ZM286.74 175.782C284.696 175.782 283.324 174.228 283.324 171.302C283.324 168.278 284.738 166.78 286.74 166.78C288.798 166.78 290.198 168.362 290.198 171.302C290.198 174.186 288.756 175.782 286.74 175.782ZM295.059 169.23H293.813V174.368C293.813 176.104 294.765 176.79 296.179 176.79C297.355 176.79 298.167 176.104 298.503 175.348H298.531V176.608H299.735V169.23H298.475V173.22C298.475 174.844 297.831 175.754 296.459 175.754C295.969 175.754 295.577 175.6 295.325 175.264C295.059 174.914 295.059 174.298 295.059 173.766V169.23ZM302.765 167.088V167.62C302.765 169.034 302.541 169.272 301.547 169.272H301.323V170.196H302.667V174.76C302.667 176.02 303.241 176.72 304.683 176.72C305.327 176.72 305.845 176.636 305.845 176.636V175.572C305.845 175.572 305.411 175.642 305.033 175.642C304.235 175.642 303.913 175.334 303.913 174.55V170.196L305.733 170.196V169.23L303.913 169.23V167.088H302.765ZM312.272 173.416C312.272 174.76 311.474 175.796 310.172 175.796C308.702 175.796 308.212 174.578 308.212 172.912C308.212 171.176 308.856 170.056 310.27 170.056C311.446 170.056 312.272 171.064 312.272 172.632V173.416ZM313.504 165.576H312.244V170.35H312.216C311.922 169.664 311.208 169.048 310.102 169.048C308.24 169.048 306.924 170.434 306.924 172.968C306.924 175.81 308.366 176.79 309.934 176.79C311.068 176.79 311.866 176.118 312.258 175.39H312.3V176.608H313.504V165.576ZM318.772 176.79C320.844 176.79 322.09 175.222 322.09 172.912C322.09 170.63 320.998 169.048 318.8 169.048C316.742 169.048 315.482 170.63 315.482 172.912C315.482 175.222 316.602 176.79 318.772 176.79ZM318.786 170.014C320.2 170.014 320.788 171.12 320.788 172.912C320.788 174.718 320.186 175.81 318.814 175.81C317.386 175.81 316.784 174.718 316.784 172.912C316.784 171.12 317.442 170.014 318.786 170.014ZM326.852 176.79C328.924 176.79 330.17 175.222 330.17 172.912C330.17 170.63 329.078 169.048 326.88 169.048C324.822 169.048 323.562 170.63 323.562 172.912C323.562 175.222 324.682 176.79 326.852 176.79ZM326.866 170.014C328.28 170.014 328.868 171.12 328.868 172.912C328.868 174.718 328.266 175.81 326.894 175.81C325.466 175.81 324.864 174.718 324.864 172.912C324.864 171.12 325.522 170.014 326.866 170.014ZM332.164 176.608H333.424V172.59C333.424 171.162 334.292 170.406 335.608 170.406H335.846V169.09H335.72C334.642 169.09 333.718 169.846 333.382 170.616H333.354V169.23H332.164V176.608ZM341.587 176.608H348.503V175.446H342.889V171.764H347.985V170.63H342.889V167.06H348.433V165.898H341.587V176.608ZM349.871 176.608H351.243L353.063 173.724H353.105L354.939 176.608H356.437L353.875 172.73L356.199 169.23H354.827L353.175 171.806H353.147L351.537 169.23H350.053L352.391 172.8L349.871 176.608ZM359.167 173.192V172.408C359.167 171.162 359.965 170.056 361.267 170.056C362.779 170.056 363.241 171.246 363.241 172.814C363.241 174.746 362.597 175.796 361.281 175.796C359.881 175.796 359.167 174.648 359.167 173.192ZM357.949 179.24H359.209V175.53H359.237C359.517 176.188 360.385 176.79 361.463 176.79C363.129 176.79 364.515 175.502 364.515 172.814C364.515 170.014 363.115 169.048 361.547 169.048C360.427 169.048 359.629 169.678 359.195 170.462H359.167V169.23H357.949V179.24ZM366.507 176.608H367.767V165.576H366.507V176.608ZM373.022 176.79C375.094 176.79 376.34 175.222 376.34 172.912C376.34 170.63 375.248 169.048 373.05 169.048C370.992 169.048 369.732 170.63 369.732 172.912C369.732 175.222 370.852 176.79 373.022 176.79ZM373.036 170.014C374.45 170.014 375.038 171.12 375.038 172.912C375.038 174.718 374.436 175.81 373.064 175.81C371.636 175.81 371.034 174.718 371.034 172.912C371.034 171.12 371.692 170.014 373.036 170.014ZM378.334 176.608H379.594V172.59C379.594 171.162 380.462 170.406 381.778 170.406H382.016V169.09H381.89C380.812 169.09 379.888 169.846 379.552 170.616H379.524V169.23H378.334V176.608ZM388.09 172.268L384.31 172.268C384.464 170.924 385.108 170 386.284 170C387.572 170 388.062 170.952 388.09 172.184V172.268ZM389.28 174.676H388.062C387.936 175.11 387.614 175.824 386.382 175.824C384.996 175.824 384.38 174.788 384.296 173.262L389.378 173.262V172.618C389.378 170.756 388.51 169.048 386.298 169.048C384.184 169.048 383.008 170.77 383.008 172.954C383.008 175.152 384.086 176.79 386.34 176.79C387.922 176.79 389.014 175.95 389.28 174.676ZM391.295 176.608H392.555V172.59C392.555 171.162 393.423 170.406 394.739 170.406H394.977V169.09H394.851C393.773 169.09 392.849 169.846 392.513 170.616H392.485V169.23H391.295V176.608ZM287.006 190.416C287.006 191.76 286.208 192.796 284.906 192.796C283.436 192.796 282.946 191.578 282.946 189.912C282.946 188.176 283.59 187.056 285.004 187.056C286.18 187.056 287.006 188.064 287.006 189.632V190.416ZM288.238 182.576H286.978V187.35H286.95C286.656 186.664 285.942 186.048 284.836 186.048C282.974 186.048 281.658 187.434 281.658 189.968C281.658 192.81 283.1 193.79 284.668 193.79C285.802 193.79 286.6 193.118 286.992 192.39H287.034V193.608H288.238V182.576ZM295.299 189.268H291.519C291.673 187.924 292.317 187 293.493 187C294.781 187 295.271 187.952 295.299 189.184V189.268ZM296.489 191.676H295.271C295.145 192.11 294.823 192.824 293.591 192.824C292.205 192.824 291.589 191.788 291.505 190.262H296.587V189.618C296.587 187.756 295.719 186.048 293.507 186.048C291.393 186.048 290.217 187.77 290.217 189.954C290.217 192.152 291.295 193.79 293.549 193.79C295.131 193.79 296.223 192.95 296.489 191.676ZM304.212 188.456C304.086 186.72 302.756 186.048 301.286 186.048C299.214 186.048 297.982 187.7 297.982 189.954C297.982 192.292 299.13 193.776 301.258 193.776C302.854 193.776 304.072 192.908 304.254 191.2H303.078C303.036 191.76 302.672 192.796 301.272 192.796C299.788 192.796 299.27 191.606 299.27 189.898C299.27 188.176 299.97 187.014 301.3 187.014C302.364 187.014 302.896 187.7 302.98 188.456H304.212ZM307.338 191.354L308.57 189.968L310.726 193.608H312.196L309.424 189.002L311.888 186.23H310.418L307.338 189.786V182.576H306.078V193.608H307.338V191.354Z" fill="#1D1D1D"/>
<path d="M281.952 527.738C281.952 531.56 284.108 533.282 286.74 533.282C289.358 533.282 291.57 531.56 291.57 527.738C291.57 523.902 289.344 522.194 286.74 522.194C284.192 522.194 281.952 523.902 281.952 527.738ZM286.74 532.232C284.696 532.232 283.324 530.678 283.324 527.752C283.324 524.728 284.738 523.23 286.74 523.23C288.798 523.23 290.198 524.812 290.198 527.752C290.198 530.636 288.756 532.232 286.74 532.232ZM295.059 525.68H293.813V530.818C293.813 532.554 294.765 533.24 296.179 533.24C297.355 533.24 298.167 532.554 298.503 531.798H298.531V533.058H299.735V525.68H298.475V529.67C298.475 531.294 297.831 532.204 296.459 532.204C295.969 532.204 295.577 532.05 295.325 531.714C295.059 531.364 295.059 530.748 295.059 530.216V525.68ZM302.765 523.538V524.07C302.765 525.484 302.541 525.722 301.547 525.722H301.323V526.646H302.667V531.21C302.667 532.47 303.241 533.17 304.683 533.17C305.327 533.17 305.845 533.086 305.845 533.086V532.022C305.845 532.022 305.411 532.092 305.033 532.092C304.235 532.092 303.913 531.784 303.913 531V526.646H305.733V525.68H303.913V523.538H302.765ZM312.272 529.866C312.272 531.21 311.474 532.246 310.172 532.246C308.702 532.246 308.212 531.028 308.212 529.362C308.212 527.626 308.856 526.506 310.27 526.506C311.446 526.506 312.272 527.514 312.272 529.082V529.866ZM313.504 522.026H312.244V526.8H312.216C311.922 526.114 311.208 525.498 310.102 525.498C308.24 525.498 306.924 526.884 306.924 529.418C306.924 532.26 308.366 533.24 309.934 533.24C311.068 533.24 311.866 532.568 312.258 531.84H312.3V533.058H313.504V522.026ZM318.772 533.24C320.844 533.24 322.09 531.672 322.09 529.362C322.09 527.08 320.998 525.498 318.8 525.498C316.742 525.498 315.482 527.08 315.482 529.362C315.482 531.672 316.602 533.24 318.772 533.24ZM318.786 526.464C320.2 526.464 320.788 527.57 320.788 529.362C320.788 531.168 320.186 532.26 318.814 532.26C317.386 532.26 316.784 531.168 316.784 529.362C316.784 527.57 317.442 526.464 318.786 526.464ZM326.852 533.24C328.924 533.24 330.17 531.672 330.17 529.362C330.17 527.08 329.078 525.498 326.88 525.498C324.822 525.498 323.562 527.08 323.562 529.362C323.562 531.672 324.682 533.24 326.852 533.24ZM326.866 526.464C328.28 526.464 328.868 527.57 328.868 529.362C328.868 531.168 328.266 532.26 326.894 532.26C325.466 532.26 324.864 531.168 324.864 529.362C324.864 527.57 325.522 526.464 326.866 526.464ZM332.164 533.058H333.424V529.04C333.424 527.612 334.292 526.856 335.608 526.856H335.846V525.54H335.72C334.642 525.54 333.718 526.296 333.382 527.066H333.354V525.68H332.164V533.058ZM341.587 533.058H348.503V531.896H342.889V528.214H347.985V527.08H342.889V523.51H348.433V522.348H341.587V533.058ZM349.871 533.058H351.243L353.063 530.174H353.105L354.939 533.058H356.437L353.875 529.18L356.199 525.68H354.827L353.175 528.256H353.147L351.537 525.68H350.053L352.391 529.25L349.871 533.058ZM359.167 529.642V528.858C359.167 527.612 359.965 526.506 361.267 526.506C362.779 526.506 363.241 527.696 363.241 529.264C363.241 531.196 362.597 532.246 361.281 532.246C359.881 532.246 359.167 531.098 359.167 529.642ZM357.949 535.69H359.209V531.98H359.237C359.517 532.638 360.385 533.24 361.463 533.24C363.129 533.24 364.515 531.952 364.515 529.264C364.515 526.464 363.115 525.498 361.547 525.498C360.427 525.498 359.629 526.128 359.195 526.912H359.167V525.68H357.949V535.69ZM366.507 533.058H367.767V522.026H366.507V533.058ZM373.022 533.24C375.094 533.24 376.34 531.672 376.34 529.362C376.34 527.08 375.248 525.498 373.05 525.498C370.992 525.498 369.732 527.08 369.732 529.362C369.732 531.672 370.852 533.24 373.022 533.24ZM373.036 526.464C374.45 526.464 375.038 527.57 375.038 529.362C375.038 531.168 374.436 532.26 373.064 532.26C371.636 532.26 371.034 531.168 371.034 529.362C371.034 527.57 371.692 526.464 373.036 526.464ZM378.334 533.058H379.594V529.04C379.594 527.612 380.462 526.856 381.778 526.856H382.016V525.54H381.89C380.812 525.54 379.888 526.296 379.552 527.066H379.524V525.68L378.334 525.68V533.058ZM388.09 528.718H384.31C384.464 527.374 385.108 526.45 386.284 526.45C387.572 526.45 388.062 527.402 388.09 528.634V528.718ZM389.28 531.126H388.062C387.936 531.56 387.614 532.274 386.382 532.274C384.996 532.274 384.38 531.238 384.296 529.712H389.378V529.068C389.378 527.206 388.51 525.498 386.298 525.498C384.184 525.498 383.008 527.22 383.008 529.404C383.008 531.602 384.086 533.24 386.34 533.24C387.922 533.24 389.014 532.4 389.28 531.126ZM391.295 533.058H392.555V529.04C392.555 527.612 393.423 526.856 394.739 526.856H394.977V525.54H394.851C393.773 525.54 392.849 526.296 392.513 527.066H392.485V525.68H391.295V533.058ZM405.268 529.866C405.268 531.21 404.47 532.246 403.168 532.246C401.698 532.246 401.208 531.028 401.208 529.362C401.208 527.626 401.852 526.506 403.266 526.506C404.442 526.506 405.268 527.514 405.268 529.082V529.866ZM406.5 522.026H405.24V526.8H405.212C404.918 526.114 404.204 525.498 403.098 525.498C401.236 525.498 399.92 526.884 399.92 529.418C399.92 532.26 401.362 533.24 402.93 533.24C404.064 533.24 404.862 532.568 405.254 531.84H405.296V533.058H406.5V522.026ZM413.56 528.718H409.78C409.934 527.374 410.578 526.45 411.754 526.45C413.042 526.45 413.532 527.402 413.56 528.634V528.718ZM414.75 531.126H413.532C413.406 531.56 413.084 532.274 411.852 532.274C410.466 532.274 409.85 531.238 409.766 529.712H414.848V529.068C414.848 527.206 413.98 525.498 411.768 525.498C409.654 525.498 408.478 527.22 408.478 529.404C408.478 531.602 409.556 533.24 411.81 533.24C413.392 533.24 414.484 532.4 414.75 531.126ZM422.474 527.906C422.348 526.17 421.018 525.498 419.548 525.498C417.476 525.498 416.244 527.15 416.244 529.404C416.244 531.742 417.392 533.226 419.52 533.226C421.116 533.226 422.334 532.358 422.516 530.65H421.34C421.298 531.21 420.934 532.246 419.534 532.246C418.05 532.246 417.532 531.056 417.532 529.348C417.532 527.626 418.232 526.464 419.562 526.464C420.626 526.464 421.158 527.15 421.242 527.906H422.474ZM425.599 530.804L426.831 529.418L428.987 533.058H430.457L427.685 528.452L430.149 525.68H428.679L425.599 529.236V522.026H424.339V533.058H425.599V530.804Z" fill="#1D1D1D"/>
<path d="M735.952 341.366C735.952 345.188 738.108 346.91 740.74 346.91C743.358 346.91 745.57 345.188 745.57 341.366C745.57 337.53 743.344 335.822 740.74 335.822C738.192 335.822 735.952 337.53 735.952 341.366ZM740.74 345.86C738.696 345.86 737.324 344.306 737.324 341.38C737.324 338.356 738.738 336.858 740.74 336.858C742.798 336.858 744.198 338.44 744.198 341.38C744.198 344.264 742.756 345.86 740.74 345.86ZM749.059 339.308H747.813V344.446C747.813 346.182 748.765 346.868 750.179 346.868C751.355 346.868 752.167 346.182 752.503 345.426H752.531V346.686H753.735V339.308H752.475V343.298C752.475 344.922 751.831 345.832 750.459 345.832C749.969 345.832 749.577 345.678 749.325 345.342C749.059 344.992 749.059 344.376 749.059 343.844V339.308ZM756.765 337.166V337.698C756.765 339.112 756.541 339.35 755.547 339.35H755.323V340.274H756.667V344.838C756.667 346.098 757.241 346.798 758.683 346.798C759.327 346.798 759.845 346.714 759.845 346.714V345.65C759.845 345.65 759.411 345.72 759.033 345.72C758.235 345.72 757.913 345.412 757.913 344.628V340.274H759.733V339.308H757.913V337.166H756.765ZM766.272 343.494C766.272 344.838 765.474 345.874 764.172 345.874C762.702 345.874 762.212 344.656 762.212 342.99C762.212 341.254 762.856 340.134 764.27 340.134C765.446 340.134 766.272 341.142 766.272 342.71V343.494ZM767.504 335.654H766.244V340.428H766.216C765.922 339.742 765.208 339.126 764.102 339.126C762.24 339.126 760.924 340.512 760.924 343.046C760.924 345.888 762.366 346.868 763.934 346.868C765.068 346.868 765.866 346.196 766.258 345.468H766.3V346.686H767.504V335.654ZM772.772 346.868C774.844 346.868 776.09 345.3 776.09 342.99C776.09 340.708 774.998 339.126 772.8 339.126C770.742 339.126 769.482 340.708 769.482 342.99C769.482 345.3 770.602 346.868 772.772 346.868ZM772.786 340.092C774.2 340.092 774.788 341.198 774.788 342.99C774.788 344.796 774.186 345.888 772.814 345.888C771.386 345.888 770.784 344.796 770.784 342.99C770.784 341.198 771.442 340.092 772.786 340.092ZM780.852 346.868C782.924 346.868 784.17 345.3 784.17 342.99C784.17 340.708 783.078 339.126 780.88 339.126C778.822 339.126 777.562 340.708 777.562 342.99C777.562 345.3 778.682 346.868 780.852 346.868ZM780.866 340.092C782.28 340.092 782.868 341.198 782.868 342.99C782.868 344.796 782.266 345.888 780.894 345.888C779.466 345.888 778.864 344.796 778.864 342.99C778.864 341.198 779.522 340.092 780.866 340.092ZM786.164 346.686H787.424V342.668C787.424 341.24 788.292 340.484 789.608 340.484H789.846V339.168H789.72C788.642 339.168 787.718 339.924 787.382 340.694H787.354V339.308H786.164V346.686ZM736.456 363.686H743.372V362.524H737.758V358.842H742.854V357.708H737.758V354.138H743.302V352.976H736.456V363.686ZM744.741 363.686H746.113L747.933 360.802H747.975L749.809 363.686H751.307L748.745 359.808L751.069 356.308H749.697L748.045 358.884H748.017L746.407 356.308H744.923L747.261 359.878L744.741 363.686ZM754.036 360.27V359.486C754.036 358.24 754.834 357.134 756.136 357.134C757.648 357.134 758.11 358.324 758.11 359.892C758.11 361.824 757.466 362.874 756.15 362.874C754.75 362.874 754.036 361.726 754.036 360.27ZM752.818 366.318L754.078 366.318V362.608H754.106C754.386 363.266 755.254 363.868 756.332 363.868C757.998 363.868 759.384 362.58 759.384 359.892C759.384 357.092 757.984 356.126 756.416 356.126C755.296 356.126 754.498 356.756 754.064 357.54H754.036V356.308H752.818V366.318ZM761.377 363.686H762.637V352.654H761.377V363.686ZM767.891 363.868C769.963 363.868 771.209 362.3 771.209 359.99C771.209 357.708 770.117 356.126 767.919 356.126C765.861 356.126 764.601 357.708 764.601 359.99C764.601 362.3 765.721 363.868 767.891 363.868ZM767.905 357.092C769.319 357.092 769.907 358.198 769.907 359.99C769.907 361.796 769.305 362.888 767.933 362.888C766.505 362.888 765.903 361.796 765.903 359.99C765.903 358.198 766.561 357.092 767.905 357.092ZM773.203 363.686H774.463V359.668C774.463 358.24 775.331 357.484 776.647 357.484H776.885V356.168H776.759C775.681 356.168 774.757 356.924 774.421 357.694H774.393V356.308H773.203V363.686ZM782.959 359.346L779.179 359.346C779.333 358.002 779.977 357.078 781.153 357.078C782.441 357.078 782.931 358.03 782.959 359.262V359.346ZM784.149 361.754H782.931C782.805 362.188 782.483 362.902 781.251 362.902C779.865 362.902 779.249 361.866 779.165 360.34L784.247 360.34V359.696C784.247 357.834 783.379 356.126 781.167 356.126C779.053 356.126 777.877 357.848 777.877 360.032C777.877 362.23 778.955 363.868 781.209 363.868C782.791 363.868 783.883 363.028 784.149 361.754ZM786.164 363.686H787.424V359.668C787.424 358.24 788.292 357.484 789.608 357.484H789.846V356.168H789.72C788.642 356.168 787.718 356.924 787.382 357.694H787.354V356.308H786.164V363.686ZM800.137 360.494C800.137 361.838 799.339 362.874 798.037 362.874C796.567 362.874 796.077 361.656 796.077 359.99C796.077 358.254 796.721 357.134 798.135 357.134C799.311 357.134 800.137 358.142 800.137 359.71V360.494ZM801.369 352.654H800.109V357.428H800.081C799.787 356.742 799.073 356.126 797.967 356.126C796.105 356.126 794.789 357.512 794.789 360.046C794.789 362.888 796.231 363.868 797.799 363.868C798.933 363.868 799.731 363.196 800.123 362.468H800.165V363.686H801.369V352.654ZM808.429 359.346H804.649C804.803 358.002 805.447 357.078 806.623 357.078C807.911 357.078 808.401 358.03 808.429 359.262V359.346ZM809.619 361.754H808.401C808.275 362.188 807.953 362.902 806.721 362.902C805.335 362.902 804.719 361.866 804.635 360.34H809.717V359.696C809.717 357.834 808.849 356.126 806.637 356.126C804.523 356.126 803.347 357.848 803.347 360.032C803.347 362.23 804.425 363.868 806.679 363.868C808.261 363.868 809.353 363.028 809.619 361.754ZM817.343 358.534C817.217 356.798 815.887 356.126 814.417 356.126C812.345 356.126 811.113 357.778 811.113 360.032C811.113 362.37 812.261 363.854 814.389 363.854C815.985 363.854 817.203 362.986 817.385 361.278L816.209 361.278C816.167 361.838 815.803 362.874 814.403 362.874C812.919 362.874 812.401 361.684 812.401 359.976C812.401 358.254 813.101 357.092 814.431 357.092C815.495 357.092 816.027 357.778 816.111 358.534H817.343ZM820.469 361.432L821.701 360.046L823.857 363.686H825.327L822.555 359.08L825.019 356.308H823.549L820.469 359.864V352.654H819.209V363.686H820.469V361.432Z" fill="#1D1D1D"/>
<ellipse cx="631.5" cy="469.646" rx="7.63821" ry="7.5" transform="rotate(90 631.5 469.646)" fill="#91BC6E"/>
<ellipse cx="631.5" cy="226.241" rx="7.63821" ry="7.5" transform="rotate(90 631.5 226.241)" fill="#91BC6E"/>
<ellipse cx="565" cy="469.646" rx="7.63821" ry="8" transform="rotate(90 565 469.646)" fill="#E7B261"/>
<ellipse cx="498" cy="469.646" rx="7.63821" ry="8" transform="rotate(90 498 469.646)" fill="#E7B261"/>
<ellipse cx="498" cy="322.992" rx="7.63821" ry="8" transform="rotate(90 498 322.992)" fill="#E7B261"/>
<ellipse cx="431.5" cy="469.646" rx="7.63821" ry="7.5" transform="rotate(90 431.5 469.646)" fill="#91BC6E"/>
<ellipse cx="431.5" cy="322.992" rx="7.63821" ry="7.5" transform="rotate(90 431.5 322.992)" fill="#91BC6E"/>
<ellipse cx="364.5" cy="469.646" rx="7.63821" ry="7.5" transform="rotate(90 364.5 469.646)" fill="#91BC6E"/>
<ellipse cx="364.5" cy="322.992" rx="7.63821" ry="7.5" transform="rotate(90 364.5 322.992)" fill="#91BC6E"/>
<ellipse cx="297.5" cy="469.646" rx="7.63821" ry="7.5" transform="rotate(90 297.5 469.646)" fill="#91BC6E"/>
<ellipse cx="297.5" cy="322.992" rx="7.63821" ry="7.5" transform="rotate(90 297.5 322.992)" fill="#91BC6E"/>
<ellipse cx="230.5" cy="469.646" rx="7.63821" ry="7.5" transform="rotate(90 230.5 469.646)" fill="#91BC6E"/>
<ellipse cx="230.5" cy="322.992" rx="7.63821" ry="7.5" transform="rotate(90 230.5 322.992)" fill="#91BC6E"/>
<ellipse cx="163.5" cy="469.646" rx="7.63821" ry="7.5" transform="rotate(90 163.5 469.646)" fill="#91BC6E"/>
<ellipse cx="163.5" cy="322.992" rx="7.63821" ry="7.5" transform="rotate(90 163.5 322.992)" fill="#91BC6E"/>
<ellipse cx="96.5" cy="469.646" rx="7.63821" ry="7.5" transform="rotate(90 96.5 469.646)" fill="#91BC6E"/>
<ellipse cx="96.5" cy="322.992" rx="7.63821" ry="7.5" transform="rotate(90 96.5 322.992)" fill="#91BC6E"/>
<defs>
<linearGradient id="paint0_linear" x1="749.944" y1="130" x2="749.944" y2="662" gradientUnits="userSpaceOnUse">
<stop offset="0.511629" stop-color="white"/>
<stop offset="1" stop-color="white" stop-opacity="0"/>
</linearGradient>
</defs>
</svg>
