<svg id="a44f5652-be5c-46ce-a53d-9719814ae2c3" data-name="HRG Black on Bright BG" xmlns="http://www.w3.org/2000/svg" viewBox="0 0 266.06 95.05"><path d="M71.3,47.55A24,24,0,1,1,47.35,23.6,23.95,23.95,0,0,1,71.3,47.55" style="fill:#010202"/><rect x="52.34" y="34.69" width="6.45" height="25.8" style="fill:#fff"/><polygon points="35.92 60.83 52.12 44.66 42.37 44.66 42.37 34.69 35.92 34.69 35.92 60.83" style="fill:#fff"/><path d="M228.8,45.74h2.67V40.15c0-3.3-.12-6.56-.4-10h.25l7.3,15.56h3.24V26.82h-2.67v4.29c0,3.78.17,7.19.46,10.77h-.29l-7-15.06H228.8Zm-14.33,0h11.25V43.19h-8.58V37.31h7.33V34.78h-7.33v-5.4h8.35V26.82h-11Zm-10.28,0h2.67V29.27H212V26.82H199v2.45h5.17ZM190,46.08h.52c3.66,0,6.24-1.87,6.24-5.59V26.82h-2.67V40.29c0,2-1,3.24-3.57,3.24H190c-2.58,0-3.57-1.22-3.57-3.24V26.82H183.8V40.49c0,3.72,2.55,5.59,6.24,5.59M170.79,35.8V29.27h4c2.22,0,3.35,1.08,3.35,3v.51c0,1.93-1.1,3-3.23,3Zm-2.67,9.94h2.67v-7.5h4.34l3,7.5h3l-3.6-8.15a5.12,5.12,0,0,0,3.26-4.91v-.4c0-3.67-2.61-5.46-6-5.46h-6.64Zm-23.24,0h2.67V26.82h-2.67Zm-10.4,0h2.67V29.27h5.17V26.82h-13v2.45h5.17Zm-16.7-9.94V29.27h4c2.21,0,3.35,1.08,3.35,3v.51c0,1.93-1.11,3-3.24,3Zm-2.67,9.94h2.67v-7.5h4.35l3,7.5h3l-3.61-8.15a5.11,5.11,0,0,0,3.27-4.91v-.4c0-3.67-2.61-5.46-6-5.46h-6.65Zm-10.62.34H105c3.66,0,6.25-1.87,6.25-5.59V26.82h-2.67V40.29c0,2-1,3.24-3.58,3.24h-.51c-2.59,0-3.58-1.22-3.58-3.24V26.82H98.24V40.49c0,3.72,2.55,5.59,6.25,5.59m-23.13-.34H84V37.22H91.7v8.52h2.67V26.82H91.7v7.87H84V26.82H81.36Zm75.45.29h.48a4.23,4.23,0,0,0,4.06-2.62h.29l.62,2.33H164V35.69h-6.78V38h4.4v1.76c0,2.47-1.22,3.92-3.75,3.92h-.43c-2.5,0-3.6-1.39-3.6-4V32.76c0-2.5,1.19-3.83,3.77-3.83h.46c2.38,0,3.32,1.22,3.32,3.35v.31H164v-.43c0-3.63-2.18-5.68-5.9-5.68h-.46c-3.8,0-6.47,2.19-6.47,6.22v7.11c0,4.17,2.38,6.22,5.62,6.22" style="fill:#010202"/><path d="M156.24,61.69a2.63,2.63,0,0,1-3,2.87h-3.1V52.91h3.1a2.63,2.63,0,0,1,3,2.87Zm-31.83-5.88c0,1.39-.91,2.19-2.61,2.19h-3.36V52.91h3.36c1.7,0,2.61.77,2.61,2.16Zm79.44,6.11c0,1.79-.71,3-2.9,3h-.57c-2.16,0-2.92-1.19-2.92-3v-6.4c0-1.81.76-3,2.92-3H201c2.19,0,2.9,1.17,2.9,3Zm17.94-8a93.37,93.37,0,0,0,.45,10H222c-.86-2.5-1.71-4.8-3.19-8.47l-2.47-6.1h-5.45V68.19h3.81v-5c0-3.63,0-6.22-.23-9.74h.28c.74,2,1.34,3.69,2.84,7.5l2.87,7.24h5.17V49.28h-3.8ZM186.43,68.19h3.86V49.28h-3.86ZM169.72,52.8h5.14V68.19h3.87V52.8h5.14V49.28H169.72ZM163.3,68.19h3.86V49.28H163.3Zm-10-18.91h-7V68.19h7c3.83,0,6.79-2,6.79-6V55.27c0-4-3-6-6.79-6m-18.81,11h7.42V56.72h-7.42V52.85H143V49.28h-12.3V68.19h12.56V64.61h-8.7Zm-12.74-11h-7.19V68.19h3.86V61.58h3.33c3.6,0,6.44-1.91,6.44-5.69V55c0-3.78-2.78-5.68-6.44-5.68m-9.8,0h-4.55l-1.16,2.44c-1.39,2.92-1.62,3.69-2.19,5h-.23c-.57-1.31-.79-2.08-2.16-4.94l-1.19-2.5H96l4.6,9.34-4.72,9.57h4.66l1.05-2.41c1.37-3.15,1.71-4,2.3-5.48h.23c.6,1.53.94,2.33,2.3,5.48l1,2.41h4.66l-4.72-9.57Zm-26.74,11h7.41V56.72H85.23V52.85h8.43V49.28H81.36V68.19H93.92V64.61H85.23Zm153.43-2.5-3.95-1.31c-1.65-.54-2.41-1.05-2.41-2.24s.71-1.91,2.32-1.91h1.2c1.87,0,2.78.94,2.78,2.33v.57h3.86v-.82c0-3.61-2.84-5.49-6.59-5.49h-1c-3.83,0-6.45,2.16-6.45,5.54,0,2.76,1.37,4.24,4,5.12l4.91,1.64c1.31.43,1.68.91,1.68,2.05s-.88,1.85-2.36,1.85h-1.33c-1.88,0-2.87-.91-2.87-2.31v-.56h-3.92v1.08c0,3.35,2.7,5.19,6.76,5.19h1.19c3.81,0,6.45-1.73,6.45-5.34,0-3.21-1.2-4.37-4.29-5.39M201,48.93h-.65c-4,0-6.74,2.16-6.74,6v7.5c0,3.86,2.76,6,6.74,6H201c4,0,6.73-2.16,6.73-6V55c0-3.87-2.75-6-6.73-6" style="fill:#010202"/></svg>