<svg width="110" height="25" viewBox="0 0 110 25" fill="none" xmlns="http://www.w3.org/2000/svg">
<path d="M11.9928 24.0019C18.6162 24.0019 23.9856 18.6289 23.9856 12.0009C23.9856 5.37301 18.6162 0 11.9928 0C5.36936 0 0 5.37301 0 12.0009C0 18.6289 5.36936 24.0019 11.9928 24.0019Z" fill="#D40000"/>
<path d="M17.7191 5.5564H14.4905V18.4853H17.7191V5.5564Z" fill="white"/>
<path d="M6.26929 18.6504L14.3792 10.5492H9.49789V5.5564H6.26929V18.6504Z" fill="white"/>
<path d="M102.843 11.0929H104.18V8.28907C104.18 6.63808 104.123 5.00133 103.981 3.29342H104.109L107.765 11.0929H109.386V1.61397H108.049V3.76309C108.049 5.65603 108.134 7.36395 108.277 9.15726H108.134L104.621 1.61397H102.843V11.0929ZM95.6722 11.0929H101.305V9.81196H97.0092V6.86581H100.679V5.5991H97.0092V2.8949H101.191V1.61397H95.6722V11.0929ZM90.5235 11.0929H91.8605V2.83797H94.449V1.61397H87.9349V2.83797H90.5235V11.0929V11.0929ZM83.4405 11.2637H83.6965C85.5312 11.2637 86.8255 10.3243 86.8255 8.45986V1.61397H85.4886V8.36023C85.4886 9.37075 84.9908 9.98275 83.6965 9.98275H83.4405C82.1462 9.98275 81.6484 9.37075 81.6484 8.36023V1.61397H80.3114V8.45986C80.3114 10.3243 81.5915 11.2637 83.4405 11.2637ZM73.7973 6.11148V2.83797H75.7885C76.8979 2.83797 77.4668 3.37881 77.4668 4.34663V4.60282C77.4668 5.57064 76.9121 6.11148 75.8454 6.11148H73.7973ZM72.4604 11.0929H73.7973V7.33548H75.9734L77.4953 11.0929H78.9745L77.1681 7.00813C78.0357 6.65232 78.8038 5.84106 78.8038 4.54589V4.34663C78.8038 2.51062 77.4953 1.61397 75.7885 1.61397H72.4604V11.0929V11.0929ZM60.826 11.0929H62.1629V1.61397H60.826V11.0929ZM55.6204 11.0929H56.9573V2.83797H59.5459V1.61397H53.0318V2.83797H55.6204V11.0929V11.0929ZM47.2573 6.11148V2.83797H49.2485C50.3579 2.83797 50.9268 3.37881 50.9268 4.34663V4.60282C50.9268 5.57064 50.3721 6.11148 49.3054 6.11148H47.2573ZM45.9203 11.0929H47.2573V7.33548H49.4334L50.9552 11.0929H52.4344L50.6281 7.00813C51.4957 6.65232 52.2638 5.84106 52.2638 4.54589V4.34663C52.2638 2.51062 50.9552 1.61397 49.2485 1.61397H45.9203V11.0929V11.0929ZM40.6009 11.2637H40.8569C42.6917 11.2637 43.986 10.3243 43.986 8.45986V1.61397H42.649V8.36023C42.649 9.37075 42.1512 9.98275 40.8569 9.98275H40.6009C39.3066 9.98275 38.8088 9.37075 38.8088 8.36023V1.61397H37.4719V8.45986C37.4719 10.3243 38.7519 11.2637 40.6009 11.2637ZM29.0234 11.0929H30.3604V6.82311H34.2006V11.0929H35.5376V1.61397H34.2006V5.55641H30.3604V1.61397H29.0234V11.0929ZM66.7996 11.2352H67.0414C68.037 11.2352 68.7055 10.7228 69.0753 9.92582H69.2175L69.5304 11.0929H70.4122V6.05455H67.013V7.19316H69.2175V8.07558C69.2175 9.31382 68.6059 10.0397 67.3401 10.0397H67.1267C65.8751 10.0397 65.3204 9.34228 65.3204 8.03288V4.58859C65.3204 3.33611 65.9178 2.66718 67.2121 2.66718H67.4396C68.6344 2.66718 69.1037 3.27918 69.1037 4.34663V4.50319H70.4122V4.2897C70.4122 2.46793 69.3171 1.44318 67.4539 1.44318H67.2263C65.3204 1.44318 63.9835 2.53909 63.9835 4.56012V8.11828C63.9835 10.2105 65.1782 11.2352 66.7996 11.2352Z" fill="white"/>
<path d="M66.5151 19.0831C66.5151 19.9797 66.0174 20.5206 65.036 20.5206H63.4857V14.6852H65.036C66.0174 14.6852 66.5151 15.226 66.5151 16.1227V19.0831ZM50.5769 16.1369C50.5769 16.8343 50.1218 17.2328 49.2684 17.2328H47.5901V14.6852H49.2684C50.1218 14.6852 50.5769 15.0695 50.5769 15.7669V16.1369ZM90.3528 19.1969C90.3528 20.0936 89.9973 20.6914 88.9021 20.6914H88.6176C87.5367 20.6914 87.1527 20.0936 87.1527 19.1969V15.9946C87.1527 15.0837 87.5367 14.5002 88.6176 14.5002H88.9021C89.9973 14.5002 90.3528 15.0837 90.3528 15.9946V19.1969ZM99.3332 15.1691C99.3332 16.9624 99.3759 18.2149 99.5608 20.1648H99.4185C98.9919 18.9123 98.5652 17.7594 97.8256 15.9234L96.5882 12.8634H93.8574V22.3423H95.7632V19.8374C95.7632 18.0156 95.749 16.7205 95.6495 14.9556H95.7917C96.1615 15.9661 96.4602 16.8059 97.214 18.713L98.6505 22.3423H101.239V12.8634H99.3332V15.1691ZM81.6313 22.3423H83.5656V12.8634H81.6313V22.3423ZM73.2654 14.6283H75.8397V22.3423H77.774V14.6283H80.3484V12.8634H73.2654V14.6283V14.6283ZM70.0481 22.3423H71.9825V12.8634H70.0481V22.3423ZM65.0502 12.8634H61.5513V22.3423H65.0502C66.9703 22.3423 68.4495 21.3461 68.4495 19.3393V15.8665C68.4495 13.8597 66.9703 12.8634 65.0502 12.8634ZM55.6346 18.3857H59.3468V16.5924H55.6346V14.6567H59.8588V12.8634H53.7003V22.3423H59.9868V20.549H55.6346V18.3857V18.3857ZM49.2542 12.8634H45.6558V22.3423H47.5901V19.0261H49.2542C51.0605 19.0261 52.4828 18.0726 52.4828 16.1796V15.7099C52.4828 13.817 51.0889 12.8634 49.2542 12.8634ZM44.3473 12.8634H42.0716L41.4884 14.0874C40.7915 15.5534 40.6777 15.9377 40.3933 16.5924H40.2795C39.995 15.9377 39.8812 15.5534 39.1985 14.1159L38.6012 12.8634H36.3255L38.6296 17.546L36.2686 22.3423H38.6012L39.1274 21.1326C39.8101 19.5527 39.9808 19.1542 40.2795 18.3857H40.3933C40.692 19.1542 40.8626 19.5527 41.5453 21.1326L42.0716 22.3423H44.4041L42.0431 17.546L44.3473 12.8634ZM30.9578 18.3857H34.67V16.5924H30.9578V14.6567H35.182V12.8634H29.0234V22.3423H35.31V20.549H30.9578V18.3857V18.3857ZM107.782 17.1332L105.805 16.4785C104.98 16.2081 104.596 15.9519 104.596 15.3541C104.596 14.7848 104.951 14.4005 105.762 14.4005H106.359C107.298 14.4005 107.753 14.8702 107.753 15.5676V15.8523H109.688V15.4395C109.688 13.632 108.265 12.6926 106.388 12.6926H105.89C103.97 12.6926 102.661 13.7743 102.661 15.468C102.661 16.8486 103.344 17.5886 104.667 18.0299L107.127 18.8553C107.782 19.0688 107.967 19.3108 107.967 19.8801C107.967 20.4779 107.526 20.8052 106.786 20.8052H106.118C105.179 20.8052 104.681 20.3498 104.681 19.6524V19.3677H102.718V19.9086C102.718 21.588 104.069 22.5131 106.103 22.5131H106.701C108.607 22.5131 109.929 21.6449 109.929 19.8374C109.929 18.2291 109.332 17.6456 107.782 17.1332ZM88.9163 12.6926H88.5892C86.598 12.6926 85.2183 13.7743 85.2183 15.7099V19.4674C85.2183 21.403 86.598 22.4847 88.5892 22.4847H88.9163C90.9075 22.4847 92.2871 21.403 92.2871 19.4674V15.7099C92.2871 13.7743 90.9075 12.6926 88.9163 12.6926Z" fill="white"/>
</svg>
