<svg width="110" height="25" viewBox="0 0 110 25" fill="none" xmlns="http://www.w3.org/2000/svg">
<path d="M11.9928 24.0019C18.6162 24.0019 23.9856 18.6289 23.9856 12.0009C23.9856 5.37301 18.6162 0 11.9928 0C5.36936 0 0 5.37301 0 12.0009C0 18.6289 5.36936 24.0019 11.9928 24.0019Z" fill="#D40000"/>
<path d="M17.7191 5.55643H14.4905V18.4853H17.7191V5.55643Z" fill="white"/>
<path d="M6.26953 18.6504L14.3795 10.5492H9.49814V5.55643H6.26953V18.6504Z" fill="white"/>
<path d="M102.843 11.0929H104.18V8.28907C104.18 6.63808 104.123 5.00133 103.981 3.29342H104.109L107.764 11.0929H109.386V1.61397H108.049V3.76309C108.049 5.65603 108.134 7.36395 108.276 9.15726H108.134L104.621 1.61397H102.843V11.0929ZM95.672 11.0929H101.304V9.81196H97.0089V6.86581H100.678V5.5991H97.0089V2.8949H101.19V1.61397H95.672V11.0929ZM90.5233 11.0929H91.8602V2.83797H94.4488V1.61397H87.9347V2.83797H90.5233V11.0929V11.0929ZM83.4402 11.2637H83.6962C85.531 11.2637 86.8253 10.3243 86.8253 8.45986V1.61397H85.4883V8.36023C85.4883 9.37075 84.9905 9.98275 83.6962 9.98275H83.4402C82.1459 9.98275 81.6481 9.37075 81.6481 8.36023V1.61397H80.3112V8.45986C80.3112 10.3243 81.5912 11.2637 83.4402 11.2637ZM73.7971 6.11148V2.83797H75.7883C76.8977 2.83797 77.4666 3.37881 77.4666 4.34663V4.60282C77.4666 5.57064 76.9119 6.11148 75.8452 6.11148H73.7971ZM72.4601 11.0929H73.7971V7.33548H75.9732L77.495 11.0929H78.9742L77.1679 7.00813C78.0355 6.65232 78.8035 5.84106 78.8035 4.54589V4.34663C78.8035 2.51062 77.495 1.61397 75.7883 1.61397H72.4601V11.0929V11.0929ZM60.8257 11.0929H62.1627V1.61397H60.8257V11.0929ZM55.6201 11.0929H56.9571V2.83797H59.5457V1.61397H53.0315V2.83797H55.6201V11.0929V11.0929ZM47.257 6.11148V2.83797H49.2482C50.3576 2.83797 50.9265 3.37881 50.9265 4.34663V4.60282C50.9265 5.57064 50.3719 6.11148 49.3051 6.11148H47.257ZM45.9201 11.0929H47.257V7.33548H49.4331L50.955 11.0929H52.4342L50.6279 7.00813C51.4955 6.65232 52.2635 5.84106 52.2635 4.54589V4.34663C52.2635 2.51062 50.955 1.61397 49.2482 1.61397H45.9201V11.0929V11.0929ZM40.6007 11.2637H40.8567C42.6915 11.2637 43.9857 10.3243 43.9857 8.45986V1.61397H42.6488V8.36023C42.6488 9.37075 42.151 9.98275 40.8567 9.98275H40.6007C39.3064 9.98275 38.8086 9.37075 38.8086 8.36023V1.61397H37.4716V8.45986C37.4716 10.3243 38.7517 11.2637 40.6007 11.2637ZM29.0232 11.0929H30.3602V6.82311H34.2003V11.0929H35.5373V1.61397H34.2003V5.5564H30.3602V1.61397H29.0232V11.0929ZM66.7994 11.2352H67.0412C68.0368 11.2352 68.7052 10.7228 69.075 9.92582H69.2173L69.5302 11.0929H70.412V6.05455H67.0127V7.19316H69.2173V8.07558C69.2173 9.31382 68.6057 10.0397 67.3398 10.0397H67.1265C65.8749 10.0397 65.3202 9.34228 65.3202 8.03288V4.58859C65.3202 3.33611 65.9175 2.66718 67.2118 2.66718H67.4394C68.6341 2.66718 69.1035 3.27918 69.1035 4.34663V4.50319H70.412V4.2897C70.412 2.46793 69.3168 1.44318 67.4536 1.44318H67.2261C65.3202 1.44318 63.9832 2.53909 63.9832 4.56012V8.11828C63.9832 10.2105 65.1779 11.2352 66.7994 11.2352Z" fill="black"/>
<path d="M66.5149 19.0831C66.5149 19.9798 66.0171 20.5206 65.0357 20.5206H63.4854V14.6852H65.0357C66.0171 14.6852 66.5149 15.2261 66.5149 16.1227V19.0831ZM50.5767 16.137C50.5767 16.8344 50.1215 17.2329 49.2682 17.2329H47.5898V14.6852H49.2682C50.1215 14.6852 50.5767 15.0695 50.5767 15.7669V16.137ZM90.3526 19.197C90.3526 20.0936 89.997 20.6914 88.9018 20.6914H88.6174C87.5364 20.6914 87.1524 20.0936 87.1524 19.197V15.9946C87.1524 15.0837 87.5364 14.5002 88.6174 14.5002H88.9018C89.997 14.5002 90.3526 15.0837 90.3526 15.9946V19.197ZM99.333 15.1691C99.333 16.9624 99.3756 18.2149 99.5605 20.1648H99.4183C98.9916 18.9123 98.5649 17.7595 97.8253 15.9235L96.5879 12.8635H93.8571V22.3424H95.763V19.8374C95.763 18.0157 95.7488 16.7205 95.6492 14.9556H95.7914C96.1612 15.9662 96.4599 16.8059 97.2137 18.7131L98.6503 22.3424H101.239V12.8635H99.333V15.1691ZM81.6311 22.3424H83.5654V12.8635H81.6311V22.3424ZM73.2651 14.6283H75.8395V22.3424H77.7738V14.6283H80.3482V12.8635H73.2651V14.6283V14.6283ZM70.0479 22.3424H71.9822V12.8635H70.0479V22.3424ZM65.0499 12.8635H61.5511V22.3424H65.0499C66.97 22.3424 68.4492 21.3461 68.4492 19.3393V15.8665C68.4492 13.8597 66.97 12.8635 65.0499 12.8635ZM55.6343 18.3857H59.3465V16.5924H55.6343V14.6568H59.8586V12.8635H53.7V22.3424H59.9866V20.5491H55.6343V18.3857V18.3857ZM49.2539 12.8635H45.6555V22.3424H47.5898V19.0262H49.2539C51.0602 19.0262 52.4825 18.0726 52.4825 16.1797V15.71C52.4825 13.817 51.0887 12.8635 49.2539 12.8635ZM44.347 12.8635H42.0713L41.4882 14.0875C40.7913 15.5534 40.6775 15.9377 40.393 16.5924H40.2792C39.9948 15.9377 39.881 15.5534 39.1983 14.1159L38.6009 12.8635H36.3253L38.6294 17.546L36.2684 22.3424H38.6009L39.1272 21.1326C39.8099 19.5528 39.9806 19.1543 40.2792 18.3857H40.393C40.6917 19.1543 40.8624 19.5528 41.5451 21.1326L42.0713 22.3424H44.4039L42.0429 17.546L44.347 12.8635ZM30.9575 18.3857H34.6697V16.5924H30.9575V14.6568H35.1817V12.8635H29.0232V22.3424H35.3097V20.5491H30.9575V18.3857V18.3857ZM107.781 17.1332L105.804 16.4785C104.979 16.2081 104.595 15.9519 104.595 15.3542C104.595 14.7849 104.951 14.4006 105.762 14.4006H106.359C107.298 14.4006 107.753 14.8703 107.753 15.5677V15.8523H109.687V15.4396C109.687 13.632 108.265 12.6927 106.388 12.6927H105.89C103.97 12.6927 102.661 13.7743 102.661 15.468C102.661 16.8486 103.344 17.5887 104.667 18.0299L107.127 18.8554C107.781 19.0689 107.966 19.3108 107.966 19.8801C107.966 20.4779 107.525 20.8053 106.786 20.8053H106.117C105.179 20.8053 104.681 20.3498 104.681 19.6524V19.3678H102.718V19.9086C102.718 21.5881 104.069 22.5132 106.103 22.5132H106.7C108.606 22.5132 109.929 21.645 109.929 19.8374C109.929 18.2292 109.332 17.6456 107.781 17.1332ZM88.9161 12.6927H88.5889C86.5977 12.6927 85.2181 13.7743 85.2181 15.71V19.4674C85.2181 21.403 86.5977 22.4847 88.5889 22.4847H88.9161C90.9073 22.4847 92.2869 21.403 92.2869 19.4674V15.71C92.2869 13.7743 90.9073 12.6927 88.9161 12.6927Z" fill="black"/>
</svg>
